<svg width="1182" height="327" viewBox="0 0 1182 327" fill="none" xmlns="http://www.w3.org/2000/svg">
<path d="M245.999 196.073C235.832 204.061 177.01 234.199 148.87 248.269L152.501 252.353L205.604 231.021L155.225 256.438L166.571 270.055L264.154 266.877C265.213 264.457 267.331 258.708 267.331 255.077C267.331 251.446 261.279 239.04 258.254 233.291C245.545 237.648 219.674 242.671 208.328 244.638L255.984 224.213C254.169 207.148 248.571 198.343 245.999 196.073Z" fill="url(#paint0_linear_80_374)"/>
<path d="M162.033 324.973C143.515 323.157 136.464 304.549 135.254 295.471C137.07 294.563 140.973 292.748 142.062 292.748C143.152 292.748 149.778 302.431 152.955 307.272C153.318 304.73 147.357 295.32 144.332 290.933L151.14 286.848C166.39 298.104 164.756 316.955 162.033 324.973Z" fill="url(#paint1_linear_80_374)"/>
<path d="M102.121 303.187C103.483 296.833 110.896 289.269 115.284 285.486L121.184 289.571C117.19 294.291 114.073 304.246 113.014 308.634L123.907 291.841L129.808 296.833C128.355 313.899 111.653 323.914 103.483 326.789C103.029 321.04 101.056 308.158 102.121 303.187Z" fill="url(#paint2_linear_80_374)"/>
<path d="M128.9 245.092L106.66 272.778C108.929 275.047 114.194 279.677 117.099 280.04C120.004 280.403 139.793 267.785 139.793 267.785L121.638 283.217C124.059 285.335 129.898 289.571 133.892 289.571C137.887 289.571 153.106 278.376 160.217 272.778L136.162 244.638L128.9 245.092Z" fill="url(#paint3_linear_80_374)"/>
<path d="M12.7084 209.689C14.0701 203.789 17.8523 199.704 20.4243 195.619C21.332 196.376 22.9484 198.727 24.5091 200.158C29.9556 205.15 87.2949 233.291 118.007 248.722L113.922 253.261L62.6345 232.383L110.745 256.438L100.306 270.054L2.72324 268.239C1.36162 264.305 -2.88945e-10 262.339 0 255.53C3.27465e-10 247.815 4.69002 239.796 7.71584 232.383L60.3651 245.999L10.8929 225.575C11.4981 220.885 11.3468 215.59 12.7084 209.689Z" fill="url(#paint4_linear_80_374)"/>
<path d="M243.73 190.627L138.431 0V164.302L170.656 231.021C170.656 231.021 191.376 220.357 209.689 210.855L165.21 124.361L216.043 207.555C218.599 206.226 221.044 204.952 223.305 203.77L206.512 168.387L228.298 201.154C232.824 198.775 236.015 197.071 236.922 196.527C241.46 193.804 243.73 190.627 243.73 190.627Z" fill="url(#paint5_linear_80_374)"/>
<mask id="mask0_80_374" style="mask-type:alpha" maskUnits="userSpaceOnUse" x="138" y="0" width="106" height="232">
<path d="M243.73 190.627L138.431 0V164.302L170.656 231.021C170.656 231.021 191.376 220.357 209.689 210.855L165.21 124.361L216.043 207.555C218.599 206.226 221.044 204.952 223.305 203.77L206.512 168.387L228.298 201.154C232.824 198.775 236.015 197.071 236.922 196.527C241.46 193.804 243.73 190.627 243.73 190.627Z" fill="url(#paint6_linear_80_374)"/>
</mask>
<g mask="url(#mask0_80_374)">
<g style="mix-blend-mode:soft-light">
<path d="M165.413 128.25C165.448 128.35 165.481 128.446 165.511 128.539C165.489 128.445 165.457 128.349 165.413 128.25C164.168 124.69 160.123 117.073 153.001 112.852C147.547 109.445 145.588 105.5 145.291 103.953C144.688 105.618 143.869 109.685 145.411 112.631C147.339 116.314 151.587 119.551 153.777 120.481C155.886 121.377 164.274 125.653 165.413 128.25Z" fill="#565656"/>
<path d="M161.718 111.735C166.165 112.646 168.336 122.381 168.866 127.135L165.981 122.417C163.673 118.642 156.16 110.596 161.718 111.735Z" fill="#565656"/>
<path d="M171.173 125.076C175.397 117.566 172.931 114.169 171.17 113.41C170.112 113.624 168.152 114.412 168.771 115.849C169.391 117.285 170.63 122.599 171.173 125.076Z" fill="#565656"/>
<path d="M165.336 203.519C169.04 210.848 183.381 213.769 190.088 214.313C188.166 215.056 183.057 216.279 178.002 215.221C168.647 212.644 163.1 206.399 161.495 203.598C158.489 203.276 152.243 200.764 151.307 193.298C150.372 185.832 154.209 179.315 156.244 176.99C158.031 177.085 162.616 178.928 166.655 185.534C171.429 193.764 167.765 200.953 165.336 203.519Z" fill="#565656"/>
<path d="M172.846 199.899C181.528 194.59 189.354 200.392 192.182 203.957C189.769 201.284 182.027 201.308 178.457 201.654L190.059 205.255C177.77 210.177 173.463 203.735 172.846 199.899Z" fill="#565656"/>
<path d="M200.134 185.157C206.449 191.668 204.639 200.121 202.944 203.534C202.021 202.024 200.154 195.085 199.336 191.803C198.246 192.989 199.872 200.983 200.821 204.833C199.881 204.003 197.621 201.085 196.099 196.051C194.577 191.018 198.155 186.691 200.134 185.157Z" fill="#565656"/>
<path d="M186.806 196.225C183.938 191.712 177.091 183.625 172.646 187.38C167.089 192.075 184.17 192.975 186.806 196.225Z" fill="#565656"/>
<path d="M161.902 209.033C158.501 206.335 151.203 201.828 149.216 205.392C146.732 209.847 159.05 207.2 161.902 209.033Z" fill="#565656"/>
<path d="M167.795 149.023C164.457 146.248 158.55 140.029 161.631 137.354C165.482 134.01 165.416 146.609 167.795 149.023Z" fill="#565656"/>
<path d="M199.95 118.989C198.865 114.205 195.436 105.107 190.395 106.987C184.095 109.338 198.672 115.368 199.95 118.989Z" fill="#565656"/>
<path d="M201.929 153.602C205.424 152.249 211.925 148.658 209.962 145.115C207.508 140.685 204.525 152.238 201.929 153.602Z" fill="#565656"/>
<path d="M207.531 153.725C211.095 153.658 218.073 152.8 217.466 149.9C216.708 146.274 210.295 153.43 207.531 153.725Z" fill="#565656"/>
<path d="M179.032 106.657C182.041 97.7944 179.279 79.6033 144.169 77.7363C143.793 91.2556 149.814 116.226 176.909 107.955L179.217 111.73C177.986 115.724 175.281 124.055 174.306 125.429C173.087 127.147 166.342 148.45 185.012 157.778L183.586 168.698C181.907 164.538 176.365 155.935 167.629 154.794C158.893 153.654 152.516 158.526 150.419 161.104C150.774 163.804 153.321 170.091 160.674 173.633C169.864 178.061 176.483 175.634 183.486 184.965C186.515 189.919 188.929 194.926 190.28 197.665C191.615 200.373 198.421 208.92 204.643 211.355C204.765 211.442 204.839 211.471 204.86 211.438C204.788 211.411 204.715 211.384 204.643 211.355C202.836 210.079 190.645 196.404 189.845 191.124C188.991 185.488 201.719 181.919 203.606 180.765C205.493 179.611 213.292 176.462 216.62 171.834C219.283 168.132 221.363 162.451 222.07 160.074C219.448 158.436 212.442 155.46 205.395 156.658C196.586 158.155 190.663 164.37 188.895 168.368C187.126 172.367 190.904 181.725 190.196 182.158C189.489 182.591 188.192 186.301 187.903 185.829C187.615 185.357 184.66 166.744 187.162 159.704C191.92 157.767 201.951 150.92 204.013 139.027C206.076 127.135 190.527 116.266 182.495 112.318L179.032 106.657Z" fill="#565656"/>
<path d="M163.515 130.898C163.693 131.08 163.86 131.247 164.018 131.396C163.969 131.188 163.792 131.024 163.515 130.898C161.653 129 158.666 125.553 154.814 125.356C148.456 125.03 148.193 121.95 144.536 121.269C143.316 121.042 141.054 122.75 142.295 125.556C143.987 129.383 147.999 132.764 152.731 131.491C154.388 131.045 161.526 129.997 163.515 130.898Z" fill="#565656"/>
<path d="M163.084 202.224C162.317 200.97 160.876 198.461 160.714 197.736C160.446 196.531 159.78 194.904 159.498 194.019C159.236 193.196 159.188 192.4 159.025 191.327C158.866 190.272 158.647 189.212 158.532 188.293C158.384 187.109 158.32 186.216 158.242 185.323C158.234 184.388 158.181 183.762 158.119 183.355C158.106 183.105 158.131 182.764 158.133 182.146" stroke="white" stroke-width="1.10609" stroke-linecap="round"/>
<path d="M158.146 188.619C158.18 188.598 158.213 188.577 157.838 187.924C157.462 187.27 156.676 185.984 155.882 184.226" stroke="white" stroke-width="1.10609" stroke-linecap="round"/>
<path d="M158.334 188.926C158.509 187.837 158.881 186.295 159.169 185.459C159.317 185.088 159.487 184.747 159.666 184.427C159.751 184.257 159.824 184.073 159.979 183.553" stroke="white" stroke-width="1.10609" stroke-linecap="round"/>
<path d="M158.882 192.818C158.961 192.256 158.242 191.384 157.101 190.555C156.123 189.764 155.727 189.348 155.482 189.1C155.353 188.967 155.216 188.818 154.949 188.46" stroke="white" stroke-width="1.10609" stroke-linecap="round"/>
<path d="M159.355 192.67C159.743 191.78 160.322 190.108 160.777 189.126C160.882 188.873 160.935 188.655 161.019 188.484C161.104 188.313 161.218 188.197 161.439 188.014" stroke="white" stroke-width="1.10609" stroke-linecap="round"/>
<path d="M161.1 196.675C160.37 195.482 159.5 194.515 158.721 194.164C158.054 193.843 157.633 193.537 157.157 193.105C156.865 192.746 156.472 192.103 156.067 191.44" stroke="white" stroke-width="1.10609" stroke-linecap="round"/>
<path d="M161.721 196.999C161.942 196.444 162.35 194.512 162.67 193.065C162.782 192.597 162.93 192.222 163.125 191.776C163.226 191.48 163.332 191.044 163.44 190.594" stroke="white" stroke-width="1.10609" stroke-linecap="round"/>
<path d="M162.622 201.239C162.192 200.989 160.35 200.43 159.019 199.527C157.945 198.887 157.245 198.66 156.751 198.164C156.612 198.013 156.42 197.852 156.097 197.48" stroke="white" stroke-width="1.10609" stroke-linecap="round"/>
<path d="M162.64 200.805C163.166 200.297 163.503 199.763 163.669 199.193C163.903 198.581 164.106 197.985 164.226 197.49C164.279 197.268 164.319 197.104 164.336 196.668" stroke="white" stroke-width="1.10609" stroke-linecap="round"/>
<path d="M184.754 183.055C184.848 182.905 184.934 182.433 184.973 181.729C184.99 181.421 184.939 181.21 183.668 179.054C182.398 176.898 179.894 172.803 177.504 170.111C175.114 167.419 172.913 166.254 171.644 165.621C169.667 164.636 168.736 164.534 167.589 164.461C165.751 164.345 164.485 163.803 163.268 163.464C161.859 163.073 160.822 163.033 159.715 162.913C157.124 162.633 156.034 162.58 155.287 162.473C155.103 162.443 154.94 162.404 154.78 162.337C154.621 162.269 154.47 162.175 154.315 162.078" stroke="white" stroke-width="1.10609" stroke-linecap="round"/>
<path d="M160.844 158.931C161.302 159.68 161.752 160.72 162.052 161.406C162.431 162.272 162.949 163.37 163.083 164.088C162.118 164.915 160.254 165.869 159.226 166.261C158.998 166.354 158.842 166.403 158.413 166.476" stroke="white" stroke-width="1.10609" stroke-linecap="round"/>
<path d="M166.804 159.231C167.108 160.265 167.61 161.545 167.996 162.562C168.282 163.316 168.435 164.428 168.576 165.237C167.171 166.333 164.388 167.943 163.637 168.331C163.455 168.419 163.265 168.488 162.636 168.543" stroke="white" stroke-width="1.10609" stroke-linecap="round"/>
<path d="M172.959 163.077C173.061 163.015 173.162 162.953 173.263 163.077C173.893 163.848 173.54 165.249 173.745 166.396C173.831 166.878 174.168 167.359 174.4 167.851C174.564 168.2 174.332 168.622 173.999 169.108C172.266 170.077 170.652 170.501 168.639 171.051C168.239 171.176 168.07 171.279 167.731 171.346" stroke="white" stroke-width="1.10609" stroke-linecap="round"/>
<path d="M178.92 165.912C178.24 168.245 177.777 170.412 177.313 171.611C177.149 172.036 177.099 172.378 176.927 172.671C176.445 173.495 174.987 173.296 173.115 173.762C172.694 173.853 172.484 173.889 172.291 173.959C172.098 174.029 171.928 174.132 171.754 174.239" stroke="white" stroke-width="1.10609" stroke-linecap="round"/>
<path d="M191.22 179.806C191.313 179.423 191.566 178.611 192.257 177.25C192.852 176.079 193.659 175.356 194.493 174.682C195.366 173.978 196.643 173.016 197.206 172.32C197.325 172.129 197.432 171.924 200.245 170.132C203.059 168.34 208.575 164.967 214.423 161.532" stroke="white" stroke-width="1.10609" stroke-linecap="round"/>
<path d="M213.764 166.443C213.331 166.193 211.7 165.51 209.888 165.013C208.929 164.75 207.65 164.27 206.692 163.938C206.469 163.861 206.362 163.555 206.368 163.337C206.849 162.361 207.22 161.429 207.357 161.04C207.421 160.836 207.474 160.618 207.528 160.393" stroke="white" stroke-width="1.10609" stroke-linecap="round"/>
<path d="M209.684 169.219C209.549 169.302 209.276 169.469 208.876 169.62C208.173 169.887 206.565 168.56 205.118 167.929C204.243 167.548 203.509 167.411 202.603 167.235C202.228 167.162 201.678 167.027 201.065 166.793C200.811 166.696 200.764 166.46 200.784 166.189C201.107 165.026 201.44 163.888 201.591 162.9C201.61 162.699 201.629 162.502 201.688 162.133" stroke="white" stroke-width="1.10609" stroke-linecap="round"/>
<path d="M206.073 173.682C205.706 173.158 205.001 172.464 204.182 172.235C202.162 171.672 198.94 171.989 197.922 171.907C197.681 171.887 197.432 171.832 197.179 171.728C196.926 171.624 196.679 171.449 196.612 171.114C196.31 169.619 196.611 168.811 196.516 168.117C196.5 167.938 196.519 167.74 196.521 167.55C196.523 167.36 196.508 167.183 196.43 166.899" stroke="white" stroke-width="1.10609" stroke-linecap="round"/>
<path d="M201.237 177.063C199.834 177.128 196.954 177.196 195.845 176.842C194.904 176.541 194.305 176.091 193.785 175.705C193.521 175.508 193.326 175.186 193.152 174.825C193.074 173.932 193.245 172.983 193.466 172.002C193.536 171.769 193.61 171.585 193.662 171.127" stroke="white" stroke-width="1.10609" stroke-linecap="round"/>
<path d="M187.665 156.021C187.755 155.405 188.006 154.127 188.126 152.904C188.416 149.952 188.094 149.046 188.119 148.279C188.141 147.567 188.273 146.73 188.232 145.815C188.19 144.88 188.189 144.057 188.298 142.7C188.391 141.551 188.192 140.302 188.119 139.333C188.038 138.238 187.894 137.429 187.844 136.426C187.763 134.826 187.45 133.711 187.27 132.643C187.147 131.914 186.845 131.026 186.679 130.256C186.503 129.438 186.588 128.459 186.505 127.172C186.431 126.024 186.246 125.287 186.076 124.356C185.932 123.567 185.868 122.748 185.486 121.853C185.253 121.433 185.11 121.047 184.808 120.322C184.521 119.774 183.962 118.861 183.386 117.919" stroke="white" stroke-width="1.10609" stroke-linecap="round"/>
<path d="M188.989 122.242C188.41 122.596 187.27 123.944 186.886 125.098C186.559 126.082 186.668 127.271 186.825 128.188C186.88 128.93 186.858 129.508 186.871 129.874C186.869 130.064 186.851 130.262 186.831 130.465" stroke="white" stroke-width="1.10609" stroke-linecap="round"/>
<path d="M180.157 123.698C180.449 124.636 181.773 126.65 182.986 127.598C183.97 128.368 185.094 129.316 185.751 129.854C185.966 130.051 186.241 130.348 186.489 130.599C186.736 130.849 186.949 131.045 187.356 131.554" stroke="white" stroke-width="1.10609" stroke-linecap="round"/>
<path d="M192.449 126.748C192.162 126.736 190.888 128.164 190.16 129.414C189.671 130.254 189.271 131.224 188.872 131.916C188.77 132.096 188.697 132.28 188.588 132.488C188.48 132.696 188.339 132.922 188.114 133.485" stroke="white" stroke-width="1.10609" stroke-linecap="round"/>
<path d="M179.168 131.066C179.585 131.748 181.341 133.099 182.966 134.325C184.846 135.743 185.786 136.594 186.905 137.272C187.449 137.549 187.929 137.869 188.337 138.229C188.532 138.393 188.703 138.521 189.272 138.835" stroke="white" stroke-width="1.10609" stroke-linecap="round"/>
<path d="M194.461 130.73C194.37 131.113 193.869 131.983 192.752 133.604C192.031 134.65 191.079 135.098 190.719 135.858C190.015 136.97 189.403 137.813 189.143 138.465C189.059 138.635 188.931 138.806 188.8 138.983" stroke="white" stroke-width="1.10609" stroke-linecap="round"/>
<path d="M179.501 138.752C180.156 139.287 182.231 141.005 184.103 142.176C186.28 143.621 187.19 144.189 187.861 144.86C187.984 145.022 188.067 145.157 188.585 145.314" stroke="white" stroke-width="1.10609" stroke-linecap="round"/>
<path d="M197.113 137.14C196.164 137.72 194.014 139.128 192.769 140.007C191.072 141.205 190.575 142.029 189.55 142.774C188.599 143.567 188.335 144.056 188.204 144.417C188.146 144.594 188.107 144.758 188.066 144.926" stroke="white" stroke-width="1.10609" stroke-linecap="round"/>
<path d="M181.948 147.823C182.301 148.4 183.064 149.344 183.647 149.949C184.391 150.722 185.105 151.147 185.749 151.623C186.23 151.913 186.757 152.158 187.201 152.309C187.406 152.373 187.569 152.413 188.131 152.636" stroke="white" stroke-width="1.10609" stroke-linecap="round"/>
<path d="M196.597 146.896L187.88 152.226" stroke="white" stroke-width="1.10609" stroke-linecap="round"/>
<path d="M176.066 105.047C175.336 103.592 173.738 101.152 171.776 98.8997C170.897 97.89 170.112 96.8786 169.387 96.0387C168.681 95.2212 167.546 94.5058 166.046 93.0554C164.899 91.9463 163.479 90.8154 162.884 90.1928C161.916 89.1798 160.533 88.7833 159.554 88.184C157.798 87.1089 156.286 86.7999 155.179 86.1217C154.085 85.4514 152.566 84.7177 151.634 84.0279C151.431 83.9119 151.16 83.8139 150.924 83.691C150.687 83.5681 150.493 83.4232 149.848 83.0674" stroke="white" stroke-width="1.10609" stroke-linecap="round"/>
<path d="M157.231 82.8647C157.887 84.1102 158.393 85.2877 159.093 86.9089C159.647 88.1933 159.971 89.1687 160.478 90.3504C160.588 90.6067 160.6 90.809 160.505 91.0018C160.411 91.1946 160.204 91.3737 159.978 91.4862C158.494 91.3638 156.737 90.6747 156.364 90.5846C156.175 90.5392 155.99 90.4945 155.728 90.3322" stroke="white" stroke-width="1.10609" stroke-linecap="round"/>
<path d="M159.377 87.9413C158.638 87.8625 157.365 87.6862 155.922 87.7676C154.573 87.8436 153.793 87.6855 152.697 87.3721C151.534 86.7781 150.641 86.3645 150.289 86.1808C150.109 86.1035 149.923 86.0588 149.474 85.8513" stroke="white" stroke-width="1.10609" stroke-linecap="round"/>
<path d="M164.059 86.1963C164.31 87.4769 164.599 88.4693 165.052 90.0804C165.408 91.3485 165.829 92.8252 165.614 94.001C165.387 95.2467 162.549 93.9909 161.218 94.1651C160.257 94.1659 159.402 94.1581 158.424 94.0377C158.047 94.0286 157.484 94.0565 156.717 94.04" stroke="white" stroke-width="1.10609" stroke-linecap="round"/>
<path d="M170.72 91.8657C170.415 92.5829 170.253 93.5312 169.535 96.4408C169.159 97.9632 168.899 99.1512 168.621 99.9633C168.317 100.85 166.455 99.8565 162.436 99.7101C161.604 99.6781 161.418 99.6334 161.211 99.5998C161.003 99.5661 160.78 99.5449 160.549 99.523" stroke="white" stroke-width="1.10609" stroke-linecap="round"/>
<path d="M174.83 97.0188C174.16 98.0099 174.265 99.2235 174.315 100.178C174.369 101.196 173.983 102.587 173.038 103.916C172.824 104.217 172.459 104.273 172.173 104.289C170.719 103.957 166.902 103.429 164.401 103.028C164.085 102.952 163.9 102.907 163.637 102.745" stroke="white" stroke-width="1.10609" stroke-linecap="round"/>
<ellipse cx="3.5948" cy="3.31828" rx="3.5948" ry="3.31828" transform="matrix(-0.853132 0.521695 0.521695 0.853132 154.739 139.015)" fill="#565656"/>
<ellipse cx="2.21218" cy="2.48871" rx="2.21218" ry="2.48871" transform="matrix(-0.853132 0.521695 0.521695 0.853132 186.449 97.5835)" fill="#565656"/>
<ellipse cx="2.21218" cy="2.48871" rx="2.21218" ry="2.48871" transform="matrix(-0.853132 0.521695 0.521695 0.853132 207.138 110.214)" fill="#565656"/>
<ellipse cx="2.21218" cy="2.48871" rx="2.21218" ry="2.48871" transform="matrix(-0.853132 0.521695 0.521695 0.853132 195.631 208.006)" fill="#565656"/>
<ellipse cx="2.21218" cy="2.48871" rx="2.21218" ry="2.48871" transform="matrix(-0.853132 0.521695 0.521695 0.853132 149.898 172.443)" fill="#565656"/>
<circle cx="1.93566" cy="1.93566" r="1.93566" transform="matrix(-0.853132 0.521695 0.521695 0.853132 222.362 172.212)" fill="#565656"/>
</g>
</g>
<path d="M128.9 0.454102L23.1475 189.719C23.1475 189.719 24.963 192.896 29.5017 196.527C29.9736 196.905 31.0782 197.567 32.6789 198.45L54.4648 168.841L37.6715 201.101C39.9285 202.27 42.5415 203.595 45.3873 205.021L94.8594 124.815L52.1954 208.405C71.8938 218.132 97.1288 230.114 97.1288 230.114L128.9 162.487V0.454102Z" fill="url(#paint7_linear_80_374)"/>
<mask id="mask1_80_374" style="mask-type:alpha" maskUnits="userSpaceOnUse" x="23" y="0" width="106" height="231">
<path d="M128.9 0.454102L23.1475 189.719C23.1475 189.719 24.963 192.896 29.5017 196.527C29.9736 196.905 31.0782 197.567 32.6789 198.45L54.4648 168.841L37.6715 201.101C39.9285 202.27 42.5415 203.595 45.3873 205.021L94.8594 124.815L52.1954 208.405C71.8938 218.132 97.1288 230.114 97.1288 230.114L128.9 162.487V0.454102Z" fill="url(#paint8_linear_80_374)"/>
</mask>
<g mask="url(#mask1_80_374)">
<g style="mix-blend-mode:soft-light">
<path d="M102.497 128.25C102.462 128.35 102.43 128.446 102.399 128.539C102.421 128.445 102.454 128.349 102.497 128.25C103.742 124.69 107.787 117.073 114.909 112.852C120.363 109.445 122.322 105.5 122.62 103.953C123.222 105.618 124.042 109.685 122.499 112.631C120.571 116.314 116.323 119.551 114.134 120.481C112.025 121.377 103.637 125.653 102.497 128.25Z" fill="#565656"/>
<path d="M106.193 111.735C101.746 112.646 99.5742 122.381 99.0441 127.135L101.929 122.417C104.237 118.642 111.751 110.596 106.193 111.735Z" fill="#565656"/>
<path d="M96.7376 125.076C92.5136 117.566 94.9798 114.169 96.7409 113.41C97.7983 113.624 99.7582 114.412 99.1391 115.849C98.5199 117.285 97.2801 122.599 96.7376 125.076Z" fill="#565656"/>
<path d="M102.574 203.519C98.8706 210.848 84.5299 213.769 77.8226 214.313C79.745 215.056 84.8534 216.279 89.9084 215.221C99.2633 212.644 104.811 206.399 106.415 203.598C109.422 203.276 115.668 200.764 116.603 193.298C117.539 185.832 113.702 179.315 111.666 176.99C109.879 177.085 105.295 178.928 101.256 185.534C96.4819 193.764 100.146 200.953 102.574 203.519Z" fill="#565656"/>
<path d="M95.0644 199.899C86.3829 194.59 78.5564 200.392 75.7283 203.957C78.141 201.284 85.8838 201.308 89.4535 201.654L77.8515 205.255C90.1406 210.177 94.4472 203.735 95.0644 199.899Z" fill="#565656"/>
<path d="M67.7768 185.157C61.4619 191.668 63.2719 200.121 64.9663 203.534C65.8896 202.024 67.7565 195.085 68.5745 191.803C69.6648 192.989 68.0388 200.983 67.0895 204.833C68.0292 204.003 70.2891 201.085 71.8111 196.051C73.3331 191.018 69.7558 186.691 67.7768 185.157Z" fill="#565656"/>
<path d="M81.1049 196.225C83.9725 191.712 90.8192 183.625 95.2645 187.38C100.821 192.075 83.7406 192.975 81.1049 196.225Z" fill="#565656"/>
<path d="M106.009 209.033C109.41 206.335 116.708 201.828 118.695 205.392C121.178 209.847 108.86 207.2 106.009 209.033Z" fill="#565656"/>
<path d="M100.115 149.023C103.454 146.248 109.36 140.029 106.279 137.354C102.429 134.01 102.494 146.609 100.115 149.023Z" fill="#565656"/>
<path d="M67.9607 118.989C69.0454 114.205 72.4747 105.107 77.515 106.987C83.8154 109.338 69.2381 115.368 67.9607 118.989Z" fill="#565656"/>
<path d="M65.9818 153.602C62.4863 152.249 55.9859 148.658 57.9488 145.115C60.4024 140.685 63.3854 152.238 65.9818 153.602Z" fill="#565656"/>
<path d="M60.3794 153.725C56.815 153.658 49.838 152.8 50.4442 149.9C51.2021 146.274 57.6154 153.43 60.3794 153.725Z" fill="#565656"/>
<path d="M88.878 106.657C85.87 97.7944 88.6315 79.6033 123.742 77.7363C124.118 91.2556 118.097 116.226 91.0012 107.955L88.693 111.73C89.9241 115.724 92.6299 124.055 93.6048 125.429C94.8234 127.147 101.568 148.45 82.899 157.778L84.3246 168.698C86.0037 164.538 91.5458 155.935 100.282 154.794C109.017 153.654 115.395 158.526 117.491 161.104C117.137 163.804 114.589 170.091 107.237 173.633C98.0465 178.061 91.4274 175.634 84.4248 184.965C81.3954 189.919 78.982 194.926 77.631 197.665C76.2956 200.373 69.4895 208.92 63.2678 211.355C63.1458 211.442 63.0712 211.471 63.0505 211.438C63.1228 211.411 63.1952 211.384 63.2678 211.355C65.075 210.079 77.2658 196.404 78.0655 191.124C78.9191 185.488 66.1919 181.919 64.3046 180.765C62.4173 179.611 54.6187 176.462 51.2905 171.834C48.6279 168.132 46.5479 162.451 45.8407 160.074C48.4629 158.436 55.4689 155.46 62.5156 156.658C71.3241 158.155 77.2473 164.37 79.0158 168.368C80.7843 172.367 77.0064 181.725 77.7141 182.158C78.4219 182.591 79.7185 186.301 80.007 185.829C80.2956 185.357 83.2503 166.744 80.7486 159.704C75.9908 157.767 65.9596 150.92 63.8971 139.027C61.8346 127.135 77.3835 116.266 85.4158 112.318L88.878 106.657Z" fill="#565656"/>
<path d="M104.396 130.898C104.218 131.08 104.05 131.247 103.893 131.396C103.941 131.188 104.118 131.024 104.396 130.898C106.257 129 109.245 125.553 113.097 125.356C119.455 125.03 119.718 121.95 123.375 121.269C124.594 121.042 126.856 122.75 125.615 125.556C123.923 129.383 119.911 132.764 115.179 131.491C113.522 131.045 106.385 129.997 104.396 130.898Z" fill="#565656"/>
<path d="M104.826 202.224C105.593 200.97 107.035 198.461 107.196 197.736C107.465 196.531 108.13 194.904 108.412 194.019C108.674 193.196 108.723 192.4 108.885 191.327C109.044 190.272 109.264 189.212 109.379 188.293C109.526 187.109 109.591 186.216 109.669 185.323C109.676 184.388 109.729 183.762 109.791 183.355C109.804 183.105 109.78 182.764 109.778 182.146" stroke="white" stroke-width="1.10609" stroke-linecap="round"/>
<path d="M109.765 188.619C109.731 188.598 109.697 188.577 110.073 187.924C110.449 187.27 111.235 185.984 112.028 184.226" stroke="white" stroke-width="1.10609" stroke-linecap="round"/>
<path d="M109.577 188.926C109.401 187.837 109.03 186.295 108.741 185.459C108.593 185.088 108.424 184.747 108.245 184.427C108.16 184.257 108.087 184.073 107.931 183.553" stroke="white" stroke-width="1.10609" stroke-linecap="round"/>
<path d="M109.029 192.818C108.949 192.256 109.669 191.384 110.809 190.555C111.788 189.764 112.183 189.348 112.429 189.1C112.557 188.967 112.695 188.818 112.961 188.46" stroke="white" stroke-width="1.10609" stroke-linecap="round"/>
<path d="M108.556 192.67C108.167 191.78 107.588 190.108 107.134 189.126C107.028 188.873 106.976 188.655 106.891 188.484C106.807 188.313 106.692 188.197 106.471 188.014" stroke="white" stroke-width="1.10609" stroke-linecap="round"/>
<path d="M106.811 196.675C107.541 195.482 108.411 194.515 109.19 194.164C109.857 193.843 110.278 193.537 110.754 193.105C111.045 192.746 111.438 192.103 111.844 191.44" stroke="white" stroke-width="1.10609" stroke-linecap="round"/>
<path d="M106.19 196.999C105.968 196.444 105.56 194.512 105.241 193.065C105.128 192.597 104.98 192.222 104.785 191.776C104.684 191.48 104.579 191.044 104.471 190.594" stroke="white" stroke-width="1.10609" stroke-linecap="round"/>
<path d="M105.288 201.239C105.718 200.989 107.561 200.43 108.892 199.527C109.965 198.887 110.666 198.66 111.16 198.164C111.299 198.013 111.49 197.852 111.813 197.48" stroke="white" stroke-width="1.10609" stroke-linecap="round"/>
<path d="M105.271 200.805C104.745 200.297 104.408 199.763 104.241 199.193C104.007 198.581 103.804 197.985 103.685 197.49C103.631 197.268 103.592 197.104 103.574 196.668" stroke="white" stroke-width="1.10609" stroke-linecap="round"/>
<path d="M83.1564 183.055C83.0624 182.905 82.9765 182.433 82.9376 181.729C82.9205 181.421 82.9719 181.21 84.2423 179.054C85.5127 176.898 88.0166 172.803 90.4067 170.111C92.7968 167.419 94.9971 166.254 96.2669 165.621C98.2435 164.636 99.1741 164.534 100.322 164.461C102.16 164.345 103.425 163.803 104.642 163.464C106.051 163.073 107.088 163.033 108.195 162.913C110.787 162.633 111.877 162.58 112.624 162.473C112.807 162.443 112.971 162.404 113.13 162.337C113.29 162.269 113.44 162.175 113.595 162.078" stroke="white" stroke-width="1.10609" stroke-linecap="round"/>
<path d="M107.067 158.931C106.609 159.68 106.158 160.72 105.858 161.406C105.479 162.272 104.961 163.37 104.828 164.088C105.793 164.915 107.657 165.869 108.685 166.261C108.913 166.354 109.069 166.403 109.497 166.476" stroke="white" stroke-width="1.10609" stroke-linecap="round"/>
<path d="M101.106 159.231C100.803 160.265 100.3 161.545 99.9145 162.562C99.6284 163.316 99.4756 164.428 99.3345 165.237C100.739 166.333 103.523 167.943 104.274 168.331C104.456 168.419 104.646 168.488 105.275 168.543" stroke="white" stroke-width="1.10609" stroke-linecap="round"/>
<path d="M94.9515 163.076C94.85 163.014 94.7485 162.952 94.6472 163.076C94.0178 163.848 94.37 165.248 94.1653 166.395C94.0792 166.878 93.7421 167.358 93.511 167.85C93.347 168.199 93.5781 168.622 93.9115 169.107C95.6442 170.077 97.2589 170.501 99.2717 171.051C99.6711 171.175 99.8403 171.279 100.18 171.346" stroke="white" stroke-width="1.10609" stroke-linecap="round"/>
<path d="M88.9907 165.912C89.6703 168.245 90.1332 170.412 90.597 171.611C90.7615 172.036 90.8118 172.378 90.9834 172.671C91.4657 173.495 92.9232 173.296 94.796 173.762C95.2161 173.853 95.4267 173.889 95.6197 173.959C95.8128 174.029 95.982 174.132 96.1563 174.239" stroke="white" stroke-width="1.10609" stroke-linecap="round"/>
<path d="M76.6903 179.806C76.5979 179.423 76.3446 178.611 75.6532 177.25C75.0585 176.079 74.252 175.356 73.4172 174.682C72.5443 173.978 71.2677 173.016 70.7048 172.32C70.5854 172.129 70.4782 171.924 67.6651 170.132C64.8519 168.34 59.336 164.967 53.4876 161.532" stroke="white" stroke-width="1.10609" stroke-linecap="round"/>
<path d="M54.147 166.443C54.5799 166.193 56.2109 165.51 58.0224 165.013C58.981 164.75 60.2606 164.27 61.2188 163.938C61.4411 163.861 61.5485 163.555 61.5423 163.337C61.0613 162.361 60.6905 161.429 60.5531 161.04C60.4891 160.836 60.4365 160.618 60.3823 160.393" stroke="white" stroke-width="1.10609" stroke-linecap="round"/>
<path d="M58.2263 169.219C58.3617 169.302 58.6345 169.469 59.0342 169.62C59.7374 169.887 61.3459 168.56 62.7925 167.929C63.6672 167.548 64.4016 167.411 65.3071 167.235C65.6828 167.162 66.2326 167.027 66.8458 166.793C67.0996 166.696 67.1469 166.46 67.1264 166.189C66.8038 165.026 66.4709 163.888 66.3196 162.9C66.3006 162.699 66.2818 162.502 66.2227 162.133" stroke="white" stroke-width="1.10609" stroke-linecap="round"/>
<path d="M61.8375 173.682C62.2043 173.158 62.9094 172.464 63.729 172.235C65.7489 171.672 68.9708 171.989 69.9883 171.907C70.2298 171.887 70.4787 171.832 70.7317 171.728C70.9847 171.624 71.231 171.449 71.2988 171.114C71.6008 169.619 71.2998 168.811 71.3942 168.117C71.41 167.938 71.3913 167.74 71.3892 167.55C71.3871 167.36 71.4022 167.183 71.4804 166.899" stroke="white" stroke-width="1.10609" stroke-linecap="round"/>
<path d="M66.6738 177.063C68.0763 177.128 70.9568 177.196 72.0656 176.842C73.0066 176.541 73.6052 176.091 74.1254 175.705C74.39 175.508 74.584 175.186 74.7587 174.825C74.8368 173.932 74.6658 172.983 74.4446 172.002C74.3741 171.769 74.3008 171.585 74.2481 171.127" stroke="white" stroke-width="1.10609" stroke-linecap="round"/>
<path d="M80.2455 156.021C80.1557 155.405 79.9044 154.127 79.7844 152.904C79.4948 149.952 79.8161 149.046 79.792 148.279C79.7697 147.567 79.6372 146.73 79.6784 145.815C79.7205 144.88 79.722 144.057 79.6121 142.7C79.5191 141.551 79.719 140.302 79.7912 139.333C79.8728 138.238 80.0161 137.429 80.0667 136.426C80.1474 134.826 80.4609 133.711 80.6406 132.643C80.7634 131.914 81.0657 131.026 81.2315 130.256C81.4078 129.438 81.3227 128.459 81.4054 127.172C81.4791 126.024 81.6648 125.287 81.8344 124.356C81.9782 123.567 82.0424 122.748 82.4247 121.853C82.6575 121.433 82.8005 121.047 83.1027 120.322C83.3899 119.774 83.9486 118.861 84.5243 117.919" stroke="white" stroke-width="1.10609" stroke-linecap="round"/>
<path d="M78.922 122.242C79.5003 122.596 80.6401 123.944 81.0241 125.098C81.3517 126.082 81.2429 127.271 81.0853 128.188C81.03 128.93 81.053 129.508 81.0395 129.874C81.0411 130.064 81.0598 130.262 81.0791 130.465" stroke="white" stroke-width="1.10609" stroke-linecap="round"/>
<path d="M87.7533 123.698C87.4618 124.636 86.1375 126.65 84.9249 127.598C83.9404 128.368 82.8162 129.316 82.1591 129.854C81.9442 130.051 81.6696 130.348 81.4219 130.599C81.1742 130.849 80.9616 131.045 80.5545 131.554" stroke="white" stroke-width="1.10609" stroke-linecap="round"/>
<path d="M75.4619 126.748C75.7484 126.736 77.0221 128.164 77.7503 129.414C78.24 130.254 78.6393 131.224 79.0381 131.916C79.1405 132.096 79.2138 132.28 79.3221 132.488C79.4303 132.696 79.5712 132.922 79.7962 133.485" stroke="white" stroke-width="1.10609" stroke-linecap="round"/>
<path d="M88.7429 131.066C88.3259 131.748 86.5699 133.099 84.9446 134.325C83.0647 135.743 82.1248 136.594 81.0057 137.272C80.4614 137.549 79.9814 137.869 79.5738 138.229C79.3788 138.393 79.2076 138.521 78.6381 138.835" stroke="white" stroke-width="1.10609" stroke-linecap="round"/>
<path d="M73.4493 130.73C73.5407 131.113 74.0416 131.983 75.1588 133.604C75.88 134.65 76.8313 135.098 77.1911 135.858C77.8956 136.97 78.5071 137.813 78.7671 138.465C78.8513 138.635 78.9791 138.806 79.1108 138.983" stroke="white" stroke-width="1.10609" stroke-linecap="round"/>
<path d="M88.4099 138.752C87.7546 139.287 85.6797 141.005 83.8074 142.176C81.6302 143.621 80.7206 144.189 80.0493 144.86C79.9266 145.022 79.8438 145.157 79.3254 145.314" stroke="white" stroke-width="1.10609" stroke-linecap="round"/>
<path d="M70.7979 137.14C71.7465 137.72 73.8965 139.128 75.1419 140.007C76.8386 141.205 77.3358 142.029 78.36 142.774C79.3118 143.567 79.5758 144.056 79.7066 144.417C79.7641 144.594 79.8035 144.758 79.8441 144.926" stroke="white" stroke-width="1.10609" stroke-linecap="round"/>
<path d="M85.963 147.823C85.6099 148.4 84.8468 149.344 84.2637 149.949C83.5196 150.722 82.8057 151.147 82.161 151.623C81.6806 151.913 81.1531 152.158 80.7095 152.309C80.5046 152.373 80.341 152.413 79.7792 152.636" stroke="white" stroke-width="1.10609" stroke-linecap="round"/>
<path d="M71.3139 146.896L80.0303 152.226" stroke="white" stroke-width="1.10609" stroke-linecap="round"/>
<path d="M91.8446 105.047C92.575 103.592 94.1723 101.152 96.1342 98.8997C97.0137 97.89 97.7982 96.8786 98.5234 96.0387C99.2293 95.2212 100.364 94.5058 101.864 93.0554C103.011 91.9463 104.432 90.8154 105.027 90.1928C105.994 89.1798 107.377 88.7833 108.356 88.184C110.113 87.1089 111.625 86.7999 112.732 86.1217C113.826 85.4514 115.345 84.7177 116.276 84.0279C116.48 83.9119 116.75 83.8139 116.987 83.691C117.223 83.5681 117.417 83.4232 118.063 83.0674" stroke="white" stroke-width="1.10609" stroke-linecap="round"/>
<path d="M110.68 82.8647C110.024 84.1102 109.518 85.2877 108.818 86.9089C108.263 88.1933 107.94 89.1687 107.433 90.3504C107.323 90.6067 107.311 90.809 107.405 91.0018C107.5 91.1946 107.706 91.3737 107.932 91.4862C109.417 91.3638 111.173 90.6747 111.547 90.5846C111.735 90.5392 111.921 90.4945 112.183 90.3322" stroke="white" stroke-width="1.10609" stroke-linecap="round"/>
<path d="M108.534 87.9413C109.272 87.8625 110.546 87.6862 111.989 87.7676C113.338 87.8436 114.118 87.6855 115.214 87.3721C116.377 86.7781 117.27 86.3645 117.621 86.1808C117.802 86.1035 117.987 86.0588 118.437 85.8513" stroke="white" stroke-width="1.10609" stroke-linecap="round"/>
<path d="M103.852 86.1963C103.6 87.4769 103.311 88.4693 102.859 90.0804C102.503 91.3485 102.082 92.8252 102.296 94.001C102.524 95.2467 105.362 93.9909 106.693 94.1651C107.654 94.1659 108.508 94.1581 109.487 94.0377C109.864 94.0286 110.426 94.0565 111.194 94.04" stroke="white" stroke-width="1.10609" stroke-linecap="round"/>
<path d="M97.1902 91.8657C97.4959 92.5829 97.6571 93.5312 98.3759 96.4408C98.752 97.9632 99.012 99.1512 99.29 99.9633C99.5936 100.85 101.456 99.8565 105.475 99.7101C106.307 99.6781 106.492 99.6334 106.7 99.5998C106.907 99.5661 107.131 99.5449 107.361 99.523" stroke="white" stroke-width="1.10609" stroke-linecap="round"/>
<path d="M93.0807 97.0188C93.7508 98.0099 93.6459 99.2235 93.5956 100.178C93.5419 101.196 93.9275 102.587 94.8723 103.916C95.086 104.217 95.4519 104.273 95.7377 104.289C97.1914 103.957 101.009 103.429 103.51 103.028C103.825 102.952 104.011 102.907 104.273 102.745" stroke="white" stroke-width="1.10609" stroke-linecap="round"/>
<ellipse cx="114.507" cy="143.721" rx="3.5948" ry="3.31828" transform="rotate(31.446 114.507 143.721)" fill="#565656"/>
<ellipse cx="82.0501" cy="100.861" rx="2.21218" ry="2.48871" transform="rotate(31.446 82.0501 100.861)" fill="#565656"/>
<ellipse cx="61.3613" cy="113.491" rx="2.21218" ry="2.48871" transform="rotate(31.446 61.3613 113.491)" fill="#565656"/>
<ellipse cx="72.8687" cy="211.283" rx="2.21218" ry="2.48871" transform="rotate(31.446 72.8687 211.283)" fill="#565656"/>
<ellipse cx="118.601" cy="175.72" rx="2.21218" ry="2.48871" transform="rotate(31.446 118.601 175.72)" fill="#565656"/>
<circle cx="46.1902" cy="174.874" r="1.93566" transform="rotate(31.446 46.1902 174.874)" fill="#565656"/>
</g>
</g>
<path d="M408.181 228C406.898 223.801 405.44 219.485 403.807 215.053C402.291 210.62 400.774 206.188 399.258 201.755H352.017C350.501 206.188 348.926 210.62 347.293 215.053C345.777 219.485 344.377 223.801 343.094 228H314.75C319.299 214.936 323.615 202.863 327.697 191.782C331.78 180.701 335.746 170.261 339.595 160.463C343.561 150.665 347.41 141.392 351.142 132.644C354.992 123.779 358.958 115.147 363.04 106.749H389.11C393.076 115.147 396.983 123.779 400.833 132.644C404.682 141.392 408.531 150.665 412.38 160.463C416.346 170.261 420.37 180.701 424.453 191.782C428.535 202.863 432.851 214.936 437.4 228H408.181ZM375.463 134.219C374.879 135.968 374.005 138.359 372.838 141.392C371.672 144.425 370.33 147.924 368.814 151.89C367.298 155.856 365.606 160.23 363.74 165.012C361.99 169.795 360.182 174.811 358.316 180.059H392.784C390.918 174.811 389.11 169.795 387.36 165.012C385.611 160.23 383.919 155.856 382.286 151.89C380.77 147.924 379.429 144.425 378.262 141.392C377.096 138.359 376.163 135.968 375.463 134.219ZM479.474 209.279C484.256 209.279 487.639 208.812 489.622 207.879C491.605 206.946 492.596 205.138 492.596 202.455C492.596 200.355 491.313 198.547 488.747 197.031C486.181 195.398 482.274 193.59 477.025 191.607C472.942 190.091 469.209 188.516 465.827 186.883C462.561 185.25 459.761 183.326 457.428 181.109C455.096 178.776 453.288 176.035 452.005 172.886C450.721 169.737 450.08 165.946 450.08 161.513C450.08 152.882 453.288 146.058 459.703 141.042C466.118 136.027 474.925 133.519 486.123 133.519C491.722 133.519 497.087 134.044 502.22 135.093C507.352 136.027 511.434 137.076 514.467 138.243L509.918 158.539C506.885 157.489 503.561 156.556 499.945 155.739C496.446 154.923 492.48 154.515 488.047 154.515C479.882 154.515 475.8 156.789 475.8 161.338C475.8 162.388 475.975 163.321 476.325 164.138C476.675 164.954 477.375 165.771 478.424 166.587C479.474 167.287 480.874 168.104 482.623 169.037C484.49 169.853 486.823 170.786 489.622 171.836C495.338 173.936 500.062 176.035 503.794 178.135C507.527 180.118 510.443 182.334 512.543 184.784C514.759 187.116 516.275 189.741 517.092 192.657C518.025 195.573 518.491 198.956 518.491 202.805C518.491 211.903 515.05 218.785 508.168 223.451C501.403 228.117 491.78 230.45 479.299 230.45C471.134 230.45 464.31 229.75 458.828 228.35C453.463 226.95 449.73 225.784 447.63 224.851L452.005 203.68C456.437 205.429 460.986 206.829 465.652 207.879C470.318 208.812 474.925 209.279 479.474 209.279ZM574.717 229.75C567.135 229.633 560.953 228.817 556.17 227.3C551.505 225.784 547.772 223.684 544.973 221.001C542.29 218.202 540.424 214.878 539.374 211.028C538.441 207.062 537.974 202.63 537.974 197.731V96.426L564.044 92.2269V192.482C564.044 194.815 564.219 196.914 564.569 198.781C564.919 200.647 565.56 202.222 566.493 203.505C567.543 204.788 569.001 205.838 570.868 206.654C572.734 207.471 575.242 207.996 578.391 208.229L574.717 229.75ZM619.404 228H593.334V135.968H619.404V228ZM621.854 109.373C621.854 114.156 620.279 117.947 617.129 120.746C614.097 123.429 610.481 124.77 606.282 124.77C602.082 124.77 598.408 123.429 595.259 120.746C592.226 117.947 590.71 114.156 590.71 109.373C590.71 104.591 592.226 100.858 595.259 98.1757C598.408 95.3762 602.082 93.9765 606.282 93.9765C610.481 93.9765 614.097 95.3762 617.129 98.1757C620.279 100.858 621.854 104.591 621.854 109.373ZM728.109 229.575C721.461 229.575 714.812 229.341 708.163 228.875C701.631 228.525 694.808 227.592 687.692 226.075V108.499C693.291 107.449 699.415 106.691 706.064 106.224C712.713 105.641 718.895 105.349 724.61 105.349C732.309 105.349 739.366 105.932 745.781 107.099C752.313 108.149 757.912 110.015 762.578 112.698C767.243 115.381 770.859 118.938 773.425 123.371C776.108 127.687 777.45 133.052 777.45 139.468C777.45 149.149 772.784 156.789 763.452 162.388C771.151 165.304 776.4 169.27 779.199 174.286C781.999 179.301 783.399 184.959 783.399 191.257C783.399 203.971 778.733 213.536 769.401 219.952C760.186 226.367 746.423 229.575 728.109 229.575ZM714.287 175.16V206.479C716.27 206.713 718.428 206.888 720.761 207.004C723.094 207.121 725.66 207.179 728.459 207.179C736.624 207.179 743.215 206.013 748.23 203.68C753.246 201.347 755.754 197.031 755.754 190.732C755.754 185.133 753.654 181.168 749.455 178.835C745.256 176.385 739.249 175.16 731.434 175.16H714.287ZM714.287 154.34H727.585C735.983 154.34 741.99 153.29 745.606 151.19C749.222 148.974 751.03 145.475 751.03 140.692C751.03 135.793 749.164 132.352 745.431 130.369C741.698 128.386 736.216 127.395 728.984 127.395C726.651 127.395 724.144 127.453 721.461 127.57C718.778 127.57 716.387 127.687 714.287 127.92V154.34ZM889.581 181.809C889.581 189.041 888.531 195.69 886.431 201.755C884.332 207.704 881.299 212.836 877.333 217.152C873.367 221.351 868.585 224.617 862.986 226.95C857.504 229.283 851.322 230.45 844.44 230.45C837.674 230.45 831.492 229.283 825.893 226.95C820.411 224.617 815.687 221.351 811.721 217.152C807.755 212.836 804.664 207.704 802.448 201.755C800.232 195.69 799.124 189.041 799.124 181.809C799.124 174.577 800.232 167.987 802.448 162.038C804.781 156.089 807.93 151.015 811.896 146.816C815.979 142.617 820.761 139.351 826.243 137.018C831.842 134.685 837.908 133.519 844.44 133.519C851.088 133.519 857.154 134.685 862.636 137.018C868.235 139.351 873.017 142.617 876.983 146.816C880.949 151.015 884.04 156.089 886.256 162.038C888.473 167.987 889.581 174.577 889.581 181.809ZM862.986 181.809C862.986 173.761 861.353 167.462 858.087 162.913C854.937 158.247 850.388 155.914 844.44 155.914C838.491 155.914 833.883 158.247 830.617 162.913C827.351 167.462 825.718 173.761 825.718 181.809C825.718 189.858 827.351 196.273 830.617 201.055C833.883 205.721 838.491 208.054 844.44 208.054C850.388 208.054 854.937 205.721 858.087 201.055C861.353 196.273 862.986 189.858 862.986 181.809ZM931.996 179.01C931.996 193.59 937.887 200.88 949.668 200.88C952.35 200.88 954.858 200.53 957.191 199.831C959.524 199.131 961.507 198.314 963.14 197.381V155.739C961.857 155.506 960.34 155.331 958.591 155.214C956.841 154.981 954.8 154.864 952.467 154.864C945.585 154.864 940.453 157.139 937.07 161.688C933.687 166.237 931.996 172.011 931.996 179.01ZM989.21 216.452C989.21 231.499 985.361 242.639 977.662 249.871C970.08 257.219 958.299 260.893 942.319 260.893C936.72 260.893 931.121 260.369 925.522 259.319C919.923 258.386 914.733 257.103 909.95 255.47L914.5 233.599C918.582 235.232 922.84 236.515 927.272 237.448C931.821 238.381 936.953 238.848 942.669 238.848C950.134 238.848 955.383 237.215 958.416 233.949C961.565 230.683 963.14 226.484 963.14 221.351V218.027C960.34 219.31 957.424 220.302 954.392 221.001C951.476 221.585 948.268 221.876 944.769 221.876C932.054 221.876 922.315 218.144 915.549 210.678C908.784 203.097 905.401 192.54 905.401 179.01C905.401 172.244 906.451 166.121 908.551 160.638C910.65 155.039 913.683 150.257 917.649 146.291C921.731 142.325 926.689 139.293 932.521 137.193C938.353 134.977 944.944 133.869 952.292 133.869C955.441 133.869 958.649 134.044 961.915 134.394C965.298 134.627 968.622 134.977 971.888 135.443C975.154 135.91 978.245 136.493 981.161 137.193C984.194 137.776 986.877 138.418 989.21 139.118V216.452ZM1099.74 181.809C1099.74 189.041 1098.69 195.69 1096.59 201.755C1094.5 207.704 1091.46 212.836 1087.5 217.152C1083.53 221.351 1078.75 224.617 1073.15 226.95C1067.67 229.283 1061.49 230.45 1054.6 230.45C1047.84 230.45 1041.66 229.283 1036.06 226.95C1030.57 224.617 1025.85 221.351 1021.88 217.152C1017.92 212.836 1014.83 207.704 1012.61 201.755C1010.4 195.69 1009.29 189.041 1009.29 181.809C1009.29 174.577 1010.4 167.987 1012.61 162.038C1014.94 156.089 1018.09 151.015 1022.06 146.816C1026.14 142.617 1030.92 139.351 1036.41 137.018C1042.01 134.685 1048.07 133.519 1054.6 133.519C1061.25 133.519 1067.32 134.685 1072.8 137.018C1078.4 139.351 1083.18 142.617 1087.15 146.816C1091.11 151.015 1094.2 156.089 1096.42 162.038C1098.64 167.987 1099.74 174.577 1099.74 181.809ZM1073.15 181.809C1073.15 173.761 1071.52 167.462 1068.25 162.913C1065.1 158.247 1060.55 155.914 1054.6 155.914C1048.65 155.914 1044.05 158.247 1040.78 162.913C1037.51 167.462 1035.88 173.761 1035.88 181.809C1035.88 189.858 1037.51 196.273 1040.78 201.055C1044.05 205.721 1048.65 208.054 1054.6 208.054C1060.55 208.054 1065.1 205.721 1068.25 201.055C1071.52 196.273 1073.15 189.858 1073.15 181.809ZM1175.4 159.064C1173.07 158.48 1170.33 157.897 1167.18 157.314C1164.03 156.614 1160.65 156.264 1157.03 156.264C1155.4 156.264 1153.42 156.439 1151.08 156.789C1148.87 157.022 1147.18 157.314 1146.01 157.664V228H1119.94V140.867C1124.6 139.234 1130.09 137.718 1136.39 136.318C1142.8 134.802 1149.92 134.044 1157.73 134.044C1159.13 134.044 1160.82 134.16 1162.81 134.394C1164.79 134.51 1166.77 134.743 1168.75 135.093C1170.74 135.327 1172.72 135.677 1174.7 136.143C1176.69 136.493 1178.38 136.96 1179.78 137.543L1175.4 159.064Z" fill="#2F4858"/>
<defs>
<linearGradient id="paint0_linear_80_374" x1="178.826" y1="285.486" x2="294.563" y2="174.287" gradientUnits="userSpaceOnUse">
<stop stop-color="#2F4858"/>
<stop offset="0.498193" stop-color="#776E60"/>
<stop offset="1" stop-color="#FFB66E"/>
</linearGradient>
<linearGradient id="paint1_linear_80_374" x1="163.394" y1="330.419" x2="162.402" y2="268.411" gradientUnits="userSpaceOnUse">
<stop offset="0.187738" stop-color="#FF9E47"/>
<stop offset="0.700076" stop-color="#CE4C00"/>
</linearGradient>
<linearGradient id="paint2_linear_80_374" x1="106.66" y1="345.398" x2="142.74" y2="276.746" gradientUnits="userSpaceOnUse">
<stop stop-color="#FF9E47"/>
<stop offset="0.768888" stop-color="#CE4C00"/>
</linearGradient>
<linearGradient id="paint3_linear_80_374" x1="120.203" y1="298.944" x2="186.779" y2="251.33" gradientUnits="userSpaceOnUse">
<stop stop-color="#2F4858"/>
<stop offset="0.62499" stop-color="#776E60"/>
<stop offset="1" stop-color="#FFB66E"/>
</linearGradient>
<linearGradient id="paint4_linear_80_374" x1="100.306" y1="195.619" x2="37.2166" y2="323.793" gradientUnits="userSpaceOnUse">
<stop stop-color="#FF9E47"/>
<stop offset="0.700076" stop-color="#CE4C00"/>
</linearGradient>
<linearGradient id="paint5_linear_80_374" x1="144.785" y1="-13.1623" x2="10.1019" y2="214.041" gradientUnits="userSpaceOnUse">
<stop offset="0.0370738" stop-color="#FF9E47"/>
<stop offset="0.317361" stop-color="#C3854C"/>
<stop offset="0.536553" stop-color="#675F53"/>
<stop offset="0.700076" stop-color="#2F4858"/>
</linearGradient>
<linearGradient id="paint6_linear_80_374" x1="144.785" y1="-13.1623" x2="10.1019" y2="214.041" gradientUnits="userSpaceOnUse">
<stop offset="0.0370738" stop-color="#FF9E47"/>
<stop offset="0.317361" stop-color="#C3854C"/>
<stop offset="0.536553" stop-color="#675F53"/>
<stop offset="0.700076" stop-color="#2F4858"/>
</linearGradient>
<linearGradient id="paint7_linear_80_374" x1="128.9" y1="19.0629" x2="-76.6275" y2="150.767" gradientUnits="userSpaceOnUse">
<stop offset="0.127539" stop-color="#FF9E47"/>
<stop offset="0.700076" stop-color="#CE4C00"/>
</linearGradient>
<linearGradient id="paint8_linear_80_374" x1="128.9" y1="19.0629" x2="-76.6275" y2="150.767" gradientUnits="userSpaceOnUse">
<stop offset="0.127539" stop-color="#FF9E47"/>
<stop offset="0.700076" stop-color="#CE4C00"/>
</linearGradient>
</defs>
</svg>
