<svg width="554" height="678" viewBox="0 0 554 678" fill="none" xmlns="http://www.w3.org/2000/svg">
<path d="M509.793 406.33C488.724 422.884 366.825 485.338 308.509 514.496L316.034 522.961L426.082 478.754L321.677 531.426L345.192 559.644L547.416 553.06C549.611 548.043 554 536.129 554 528.605C554 521.08 541.459 495.371 535.189 483.457C508.852 492.486 455.239 502.896 431.725 506.971L530.486 464.645C526.723 429.28 515.123 411.032 509.793 406.33Z" fill="url(#paint0_linear_80_247)"/>
<path d="M335.786 673.454C297.411 669.691 282.8 631.128 280.292 612.316C284.054 610.435 292.143 606.673 294.401 606.673C296.658 606.673 310.391 626.738 316.975 636.771C317.727 631.504 305.374 612.003 299.104 602.911L313.212 594.445C344.816 617.772 341.43 656.837 335.786 673.454Z" fill="url(#paint1_linear_80_247)"/>
<path d="M211.63 628.306C214.452 615.138 229.814 599.462 238.907 591.624L251.134 600.089C242.857 609.871 236.398 630.501 234.204 639.593L256.778 604.792L269.005 615.138C265.995 650.504 231.382 671.259 214.452 677.216C213.511 665.302 209.422 638.607 211.63 628.306Z" fill="url(#paint2_linear_80_247)"/>
<path d="M267.124 507.912L221.036 565.287C225.739 569.99 236.649 579.584 242.669 580.337C248.689 581.089 289.698 554.941 289.698 554.941L252.075 586.921C257.091 591.31 269.193 600.089 277.47 600.089C285.747 600.089 317.288 576.888 332.024 565.287L282.173 506.972L267.124 507.912Z" fill="url(#paint3_linear_80_247)"/>
<path d="M26.3362 434.547C29.1579 422.319 36.996 413.854 42.326 405.389C44.2071 406.956 47.5569 411.83 50.7912 414.794C62.0781 425.141 180.904 483.456 244.55 515.436L236.085 524.842L129.8 481.575L229.501 531.426L207.868 559.643L5.64346 555.881C2.82173 547.729 -5.9879e-10 543.654 0 529.545C6.78617e-10 513.555 9.7193 496.938 15.9898 481.575L125.097 509.793L22.5739 467.467C23.828 457.747 23.5144 446.774 26.3362 434.547Z" fill="url(#paint4_linear_80_247)"/>
<path d="M505.09 395.042L286.876 0V340.489L353.657 478.754C353.657 478.754 396.595 456.653 434.547 436.963L342.37 257.718L447.715 430.124C453.011 427.369 458.078 424.729 462.764 422.28L427.963 348.954L473.11 416.86C482.489 411.93 489.102 408.398 490.981 407.27C500.387 401.627 505.09 395.042 505.09 395.042Z" fill="url(#paint5_linear_80_247)"/>
<mask id="mask0_80_247" style="mask-type:alpha" maskUnits="userSpaceOnUse" x="286" y="0" width="220" height="479">
<path d="M505.09 395.042L286.876 0V340.489L353.657 478.754C353.657 478.754 396.595 456.653 434.547 436.963L342.37 257.718L447.715 430.124C453.011 427.369 458.078 424.729 462.764 422.28L427.963 348.954L473.11 416.86C482.489 411.93 489.102 408.398 490.981 407.27C500.387 401.627 505.09 395.042 505.09 395.042Z" fill="url(#paint6_linear_80_247)"/>
</mask>
<g mask="url(#mask0_80_247)">
<g style="mix-blend-mode:soft-light">
<path d="M342.792 265.778C342.864 265.984 342.932 266.184 342.995 266.376C342.95 266.182 342.882 265.983 342.792 265.778C340.212 258.4 331.83 242.616 317.07 233.867C305.767 226.807 301.708 218.632 301.092 215.427C299.843 218.877 298.145 227.304 301.341 233.41C305.337 241.042 314.14 247.749 318.677 249.677C323.048 251.534 340.431 260.396 342.792 265.778Z" fill="#565656"/>
<path d="M335.134 231.551C344.349 233.44 348.85 253.615 349.948 263.466L343.969 253.688C339.186 245.866 323.616 229.191 335.134 231.551Z" fill="#565656"/>
<path d="M354.728 259.201C363.482 243.639 358.371 236.599 354.721 235.024C352.53 235.469 348.468 237.102 349.751 240.079C351.034 243.055 353.604 254.067 354.728 259.201Z" fill="#565656"/>
<path d="M342.632 421.759C350.308 436.948 380.027 443.001 393.926 444.129C389.943 445.669 379.356 448.202 368.881 446.01C349.494 440.67 337.998 427.728 334.673 421.925C328.443 421.256 315.498 416.052 313.559 400.579C311.621 385.106 319.573 371.601 323.791 366.783C327.495 366.981 336.994 370.799 345.365 384.488C355.258 401.545 347.665 416.443 342.632 421.759Z" fill="#565656"/>
<path d="M358.195 414.258C376.186 403.257 392.406 415.281 398.266 422.668C393.266 417.128 377.221 417.177 369.823 417.895L393.866 425.358C368.399 435.558 359.475 422.208 358.195 414.258Z" fill="#565656"/>
<path d="M414.745 383.709C427.831 397.201 424.08 414.72 420.569 421.793C418.656 418.664 414.787 404.282 413.092 397.482C410.832 399.939 414.202 416.507 416.169 424.483C414.222 422.764 409.539 416.716 406.384 406.286C403.23 395.855 410.644 386.889 414.745 383.709Z" fill="#565656"/>
<path d="M387.125 406.643C381.182 397.291 366.993 380.533 357.781 388.315C346.266 398.044 381.663 399.908 387.125 406.643Z" fill="#565656"/>
<path d="M335.515 433.187C328.467 427.595 313.344 418.257 309.226 425.642C304.079 434.873 329.606 429.388 335.515 433.187Z" fill="#565656"/>
<path d="M347.729 308.827C340.81 303.076 328.57 290.188 334.954 284.644C342.934 277.714 342.799 303.823 347.729 308.827Z" fill="#565656"/>
<path d="M414.364 246.585C412.116 236.671 405.009 217.817 394.564 221.714C381.507 226.584 411.716 239.082 414.364 246.585Z" fill="#565656"/>
<path d="M418.465 318.315C425.709 315.512 439.18 308.069 435.112 300.726C430.027 291.547 423.845 315.488 418.465 318.315Z" fill="#565656"/>
<path d="M430.075 318.57C437.461 318.432 451.92 316.654 450.664 310.643C449.093 303.13 435.803 317.959 430.075 318.57Z" fill="#565656"/>
<path d="M371.016 221.029C377.25 202.663 371.527 164.965 298.767 161.096C297.987 189.112 310.465 240.86 366.616 223.719L371.399 231.541C368.848 239.818 363.241 257.084 361.221 259.932C358.695 263.491 344.718 307.638 383.407 326.969L380.452 349.598C376.973 340.979 365.487 323.149 347.384 320.786C329.28 318.422 316.065 328.519 311.72 333.862C312.455 339.458 317.734 352.485 332.971 359.826C352.016 369.002 365.733 363.973 380.245 383.31C386.523 393.577 391.524 403.953 394.324 409.629C397.091 415.241 411.196 432.952 424.089 438C424.342 438.178 424.497 438.24 424.539 438.171C424.39 438.116 424.239 438.059 424.089 438C420.344 435.354 395.081 407.016 393.423 396.074C391.654 384.394 418.029 376.997 421.941 374.605C425.852 372.214 442.013 365.69 448.91 356.098C454.428 348.425 458.738 336.654 460.204 331.728C454.77 328.334 440.251 322.166 425.648 324.648C407.394 327.75 395.119 340.63 391.454 348.916C387.789 357.202 395.618 376.596 394.151 377.493C392.685 378.39 389.998 386.078 389.4 385.101C388.802 384.123 382.679 345.55 387.863 330.961C397.723 326.947 418.511 312.757 422.785 288.112C427.059 263.466 394.837 240.943 378.191 232.762L371.016 221.029Z" fill="#565656"/>
<path d="M338.858 271.265C339.227 271.641 339.574 271.988 339.9 272.297C339.8 271.865 339.433 271.526 338.858 271.265C335.001 267.33 328.81 260.189 320.826 259.78C307.651 259.104 307.106 252.721 299.527 251.31C297 250.84 292.313 254.378 294.884 260.195C298.391 268.126 306.705 275.132 316.51 272.494C319.944 271.57 334.737 269.397 338.858 271.265Z" fill="#565656"/>
<path d="M337.966 419.077C336.377 416.478 333.389 411.277 333.055 409.775C332.499 407.278 331.118 403.906 330.534 402.072C329.991 400.368 329.891 398.718 329.555 396.493C329.225 394.307 328.77 392.11 328.532 390.206C328.226 387.752 328.092 385.903 327.931 384.052C327.915 382.113 327.805 380.817 327.677 379.974C327.65 379.455 327.7 378.749 327.705 377.468" stroke="white" stroke-width="2.2922" stroke-linecap="round"/>
<path d="M327.732 390.881C327.802 390.838 327.872 390.795 327.093 389.441C326.315 388.086 324.685 385.421 323.041 381.778" stroke="white" stroke-width="2.2922" stroke-linecap="round"/>
<path d="M328.122 391.519C328.485 389.262 329.255 386.067 329.853 384.333C330.159 383.564 330.51 382.859 330.881 382.195C331.058 381.844 331.21 381.462 331.531 380.383" stroke="white" stroke-width="2.2922" stroke-linecap="round"/>
<path d="M329.257 399.584C329.422 398.42 327.93 396.611 325.568 394.894C323.539 393.255 322.72 392.393 322.211 391.879C321.945 391.603 321.66 391.295 321.107 390.553" stroke="white" stroke-width="2.2922" stroke-linecap="round"/>
<path d="M330.237 399.276C331.042 397.432 332.241 393.969 333.183 391.933C333.402 391.408 333.511 390.956 333.686 390.602C333.861 390.249 334.099 390.007 334.556 389.628" stroke="white" stroke-width="2.2922" stroke-linecap="round"/>
<path d="M333.853 407.577C332.341 405.104 330.537 403.1 328.923 402.373C327.541 401.709 326.668 401.074 325.682 400.178C325.078 399.434 324.263 398.101 323.424 396.728" stroke="white" stroke-width="2.2922" stroke-linecap="round"/>
<path d="M335.141 408.25C335.599 407.099 336.445 403.096 337.106 400.096C337.34 399.127 337.647 398.349 338.051 397.425C338.26 396.812 338.478 395.908 338.703 394.977" stroke="white" stroke-width="2.2922" stroke-linecap="round"/>
<path d="M337.009 417.035C336.117 416.517 332.299 415.36 329.54 413.488C327.316 412.162 325.864 411.692 324.84 410.662C324.553 410.35 324.155 410.015 323.486 409.245" stroke="white" stroke-width="2.2922" stroke-linecap="round"/>
<path d="M337.044 416.137C338.135 415.085 338.833 413.978 339.178 412.796C339.663 411.529 340.084 410.293 340.331 409.267C340.442 408.807 340.524 408.468 340.561 407.563" stroke="white" stroke-width="2.2922" stroke-linecap="round"/>
<path d="M382.873 379.352C383.068 379.041 383.246 378.062 383.327 376.604C383.362 375.965 383.255 375.527 380.623 371.06C377.99 366.592 372.801 358.107 367.848 352.528C362.895 346.949 358.335 344.535 355.704 343.223C351.608 341.181 349.679 340.97 347.301 340.819C343.492 340.579 340.869 339.454 338.347 338.753C335.428 337.941 333.278 337.86 330.984 337.611C325.614 337.029 323.355 336.921 321.807 336.698C321.426 336.637 321.087 336.555 320.757 336.416C320.426 336.276 320.114 336.082 319.793 335.881" stroke="white" stroke-width="2.2922" stroke-linecap="round"/>
<path d="M333.323 329.358C334.272 330.91 335.205 333.066 335.827 334.487C336.613 336.282 337.686 338.556 337.963 340.044C335.963 341.759 332.1 343.736 329.97 344.549C329.497 344.741 329.174 344.842 328.286 344.994" stroke="white" stroke-width="2.2922" stroke-linecap="round"/>
<path d="M345.675 329.981C346.304 332.122 347.346 334.776 348.145 336.882C348.738 338.445 349.054 340.75 349.347 342.426C346.435 344.699 340.667 348.033 339.111 348.838C338.733 349.02 338.34 349.165 337.037 349.278" stroke="white" stroke-width="2.2922" stroke-linecap="round"/>
<path d="M358.43 337.95C358.64 337.822 358.85 337.693 359.06 337.95C360.365 339.549 359.635 342.452 360.059 344.829C360.237 345.828 360.936 346.824 361.415 347.843C361.755 348.567 361.276 349.442 360.585 350.449C356.994 352.458 353.648 353.336 349.477 354.476C348.649 354.734 348.298 354.949 347.595 355.087" stroke="white" stroke-width="2.2922" stroke-linecap="round"/>
<path d="M370.783 343.826C369.374 348.661 368.415 353.152 367.454 355.636C367.113 356.516 367.009 357.226 366.653 357.833C365.654 359.54 362.633 359.128 358.752 360.094C357.881 360.282 357.445 360.356 357.045 360.501C356.645 360.647 356.294 360.861 355.933 361.082" stroke="white" stroke-width="2.2922" stroke-linecap="round"/>
<path d="M396.273 372.619C396.464 371.824 396.989 370.143 398.422 367.322C399.655 364.896 401.326 363.397 403.056 362.001C404.865 360.54 407.51 358.547 408.677 357.105C408.924 356.71 409.146 356.285 414.976 352.571C420.806 348.857 432.237 341.867 444.357 334.748" stroke="white" stroke-width="2.2922" stroke-linecap="round"/>
<path d="M442.99 344.927C442.093 344.41 438.713 342.994 434.959 341.964C432.972 341.418 430.321 340.423 428.335 339.735C427.874 339.576 427.652 338.943 427.665 338.491C428.661 336.468 429.43 334.536 429.714 333.731C429.847 333.308 429.956 332.856 430.068 332.39" stroke="white" stroke-width="2.2922" stroke-linecap="round"/>
<path d="M434.537 350.68C434.256 350.851 433.691 351.197 432.862 351.511C431.405 352.063 428.072 349.313 425.074 348.006C423.261 347.216 421.739 346.931 419.863 346.568C419.084 346.417 417.945 346.136 416.674 345.65C416.148 345.449 416.05 344.962 416.093 344.399C416.761 341.99 417.451 339.632 417.765 337.583C417.804 337.168 417.843 336.759 417.965 335.995" stroke="white" stroke-width="2.2922" stroke-linecap="round"/>
<path d="M427.053 359.928C426.293 358.843 424.832 357.403 423.133 356.929C418.947 355.762 412.27 356.419 410.162 356.248C409.661 356.208 409.146 356.093 408.621 355.878C408.097 355.663 407.586 355.3 407.446 354.605C406.82 351.507 407.444 349.834 407.248 348.395C407.215 348.024 407.254 347.614 407.259 347.22C407.263 346.827 407.232 346.46 407.07 345.87" stroke="white" stroke-width="2.2922" stroke-linecap="round"/>
<path d="M417.031 366.933C414.124 367.069 408.155 367.21 405.857 366.475C403.907 365.851 402.666 364.919 401.588 364.119C401.04 363.711 400.638 363.044 400.276 362.295C400.114 360.445 400.468 358.479 400.927 356.446C401.073 355.964 401.225 355.582 401.334 354.633" stroke="white" stroke-width="2.2922" stroke-linecap="round"/>
<path d="M388.906 323.327C389.092 322.051 389.612 319.403 389.861 316.868C390.461 310.75 389.796 308.873 389.845 307.284C389.892 305.808 390.166 304.074 390.081 302.178C389.994 300.24 389.99 298.535 390.218 295.723C390.411 293.342 389.997 290.753 389.847 288.744C389.678 286.475 389.381 284.8 389.276 282.721C389.109 279.404 388.459 277.094 388.087 274.881C387.832 273.369 387.206 271.531 386.862 269.935C386.497 268.239 386.673 266.21 386.502 263.542C386.349 261.163 385.964 259.636 385.613 257.708C385.315 256.072 385.182 254.374 384.39 252.52C383.907 251.65 383.611 250.85 382.984 249.348C382.389 248.213 381.232 246.319 380.039 244.369" stroke="white" stroke-width="2.2922" stroke-linecap="round"/>
<path d="M391.648 253.327C390.45 254.06 388.088 256.853 387.292 259.245C386.613 261.285 386.838 263.748 387.165 265.648C387.279 267.187 387.232 268.384 387.26 269.143C387.257 269.536 387.218 269.946 387.178 270.367" stroke="white" stroke-width="2.2922" stroke-linecap="round"/>
<path d="M373.347 256.345C373.951 258.288 376.695 262.461 379.208 264.426C381.248 266.022 383.578 267.986 384.94 269.101C385.385 269.509 385.954 270.125 386.468 270.644C386.981 271.164 387.421 271.569 388.265 272.624" stroke="white" stroke-width="2.2922" stroke-linecap="round"/>
<path d="M398.819 262.665C398.225 262.64 395.585 265.6 394.076 268.189C393.061 269.929 392.234 271.941 391.408 273.374C391.195 273.748 391.043 274.129 390.819 274.56C390.595 274.991 390.303 275.458 389.837 276.625" stroke="white" stroke-width="2.2922" stroke-linecap="round"/>
<path d="M371.296 271.613C372.16 273.026 375.799 275.826 379.167 278.366C383.063 281.305 385.011 283.069 387.33 284.474C388.458 285.049 389.453 285.71 390.297 286.457C390.702 286.798 391.056 287.063 392.236 287.713" stroke="white" stroke-width="2.2922" stroke-linecap="round"/>
<path d="M402.989 270.919C402.8 271.712 401.762 273.515 399.447 276.874C397.952 279.042 395.981 279.97 395.235 281.544C393.775 283.85 392.508 285.597 391.969 286.948C391.795 287.3 391.53 287.655 391.257 288.021" stroke="white" stroke-width="2.2922" stroke-linecap="round"/>
<path d="M371.986 287.542C373.344 288.65 377.644 292.21 381.524 294.638C386.036 297.631 387.921 298.808 389.312 300.2C389.566 300.534 389.738 300.815 390.812 301.139" stroke="white" stroke-width="2.2922" stroke-linecap="round"/>
<path d="M408.484 284.202C406.518 285.404 402.062 288.321 399.482 290.143C395.965 292.625 394.935 294.332 392.812 295.877C390.84 297.519 390.293 298.534 390.022 299.282C389.903 299.649 389.821 299.988 389.737 300.337" stroke="white" stroke-width="2.2922" stroke-linecap="round"/>
<path d="M377.057 306.338C377.789 307.535 379.37 309.491 380.578 310.746C382.12 312.348 383.6 313.228 384.936 314.214C385.931 314.816 387.025 315.324 387.944 315.636C388.368 315.769 388.708 315.851 389.872 316.313" stroke="white" stroke-width="2.2922" stroke-linecap="round"/>
<path d="M407.415 304.417L389.351 315.463" stroke="white" stroke-width="2.2922" stroke-linecap="round"/>
<path d="M364.868 217.693C363.355 214.677 360.045 209.621 355.979 204.953C354.156 202.861 352.53 200.765 351.028 199.024C349.565 197.33 347.213 195.848 344.104 192.842C341.727 190.544 338.783 188.2 337.551 186.91C335.545 184.811 332.68 183.989 330.651 182.747C327.011 180.519 323.878 179.879 321.583 178.473C319.316 177.084 316.168 175.564 314.238 174.134C313.816 173.894 313.255 173.691 312.765 173.436C312.275 173.181 311.873 172.881 310.535 172.143" stroke="white" stroke-width="2.2922" stroke-linecap="round"/>
<path d="M325.835 171.724C327.195 174.305 328.243 176.745 329.694 180.104C330.843 182.766 331.513 184.787 332.564 187.236C332.792 187.768 332.817 188.187 332.622 188.586C332.426 188.986 331.997 189.357 331.529 189.59C328.453 189.336 324.813 187.908 324.038 187.722C323.648 187.628 323.264 187.535 322.72 187.199" stroke="white" stroke-width="2.2922" stroke-linecap="round"/>
<path d="M330.282 182.245C328.752 182.082 326.113 181.716 323.123 181.885C320.327 182.043 318.711 181.715 316.439 181.065C314.03 179.835 312.178 178.977 311.45 178.597C311.076 178.437 310.692 178.344 309.76 177.914" stroke="white" stroke-width="2.2922" stroke-linecap="round"/>
<path d="M339.986 178.628C340.506 181.282 341.105 183.338 342.043 186.677C342.781 189.305 343.653 192.365 343.208 194.802C342.737 197.383 336.856 194.781 334.097 195.142C332.106 195.144 330.335 195.127 328.307 194.878C327.526 194.859 326.36 194.917 324.771 194.883" stroke="white" stroke-width="2.2922" stroke-linecap="round"/>
<path d="M353.79 190.377C353.157 191.863 352.823 193.828 351.333 199.858C350.554 203.013 350.015 205.475 349.439 207.158C348.81 208.995 344.951 206.937 336.621 206.633C334.898 206.567 334.513 206.474 334.084 206.404C333.654 206.335 333.19 206.291 332.712 206.245" stroke="white" stroke-width="2.2922" stroke-linecap="round"/>
<path d="M362.306 201.057C360.918 203.111 361.135 205.626 361.239 207.604C361.351 209.713 360.552 212.596 358.594 215.35C358.151 215.974 357.393 216.09 356.8 216.123C353.788 215.435 345.877 214.341 340.694 213.51C340.04 213.353 339.655 213.26 339.112 212.924" stroke="white" stroke-width="2.2922" stroke-linecap="round"/>
<ellipse cx="7.44963" cy="6.87658" rx="7.44963" ry="6.87658" transform="matrix(-0.853132 0.521695 0.521695 0.853132 320.672 288.086)" fill="#565656"/>
<ellipse cx="4.58439" cy="5.15744" rx="4.58439" ry="5.15744" transform="matrix(-0.853132 0.521695 0.521695 0.853132 386.386 202.226)" fill="#565656"/>
<ellipse cx="4.58439" cy="5.15744" rx="4.58439" ry="5.15744" transform="matrix(-0.853132 0.521695 0.521695 0.853132 429.26 228.4)" fill="#565656"/>
<ellipse cx="4.58439" cy="5.15744" rx="4.58439" ry="5.15744" transform="matrix(-0.853132 0.521695 0.521695 0.853132 405.413 431.06)" fill="#565656"/>
<ellipse cx="4.58439" cy="5.15744" rx="4.58439" ry="5.15744" transform="matrix(-0.853132 0.521695 0.521695 0.853132 310.64 357.361)" fill="#565656"/>
<circle cx="4.01134" cy="4.01134" r="4.01134" transform="matrix(-0.853132 0.521695 0.521695 0.853132 460.809 356.883)" fill="#565656"/>
</g>
</g>
<path d="M267.124 0.941406L47.9694 393.162C47.9694 393.162 51.7317 399.746 61.1374 407.271C62.1152 408.053 64.4043 409.425 67.7215 411.255L112.869 349.896L78.0678 416.75C82.7452 419.171 88.1602 421.919 94.0576 424.873L196.581 258.66L108.166 431.886C148.988 452.043 201.283 476.873 201.283 476.873L267.124 336.727V0.941406Z" fill="url(#paint7_linear_80_247)"/>
<mask id="mask1_80_247" style="mask-type:alpha" maskUnits="userSpaceOnUse" x="47" y="0" width="221" height="477">
<path d="M267.124 0.941406L47.9694 393.162C47.9694 393.162 51.7317 399.746 61.1374 407.271C62.1152 408.053 64.4043 409.425 67.7215 411.255L112.869 349.896L78.0678 416.75C82.7452 419.171 88.1602 421.919 94.0576 424.873L196.581 258.66L108.166 431.886C148.988 452.043 201.283 476.873 201.283 476.873L267.124 336.727V0.941406Z" fill="url(#paint8_linear_80_247)"/>
</mask>
<g mask="url(#mask1_80_247)">
<g style="mix-blend-mode:soft-light">
<path d="M212.408 265.778C212.336 265.984 212.269 266.184 212.206 266.376C212.251 266.182 212.319 265.983 212.408 265.778C214.989 258.4 223.371 242.616 238.131 233.867C249.433 226.807 253.492 218.632 254.109 215.427C255.358 218.877 257.056 227.304 253.859 233.41C249.864 241.042 241.06 247.749 236.523 249.677C232.152 251.534 214.77 260.396 212.408 265.778Z" fill="#565656"/>
<path d="M220.066 231.551C210.851 233.44 206.351 253.615 205.252 263.466L211.231 253.688C216.015 245.866 231.585 229.191 220.066 231.551Z" fill="#565656"/>
<path d="M200.472 259.201C191.719 243.639 196.83 236.599 200.479 235.024C202.671 235.469 206.732 237.102 205.449 240.079C204.166 243.055 201.597 254.067 200.472 259.201Z" fill="#565656"/>
<path d="M212.568 421.759C204.893 436.948 175.174 443.001 161.274 444.129C165.258 445.669 175.845 448.202 186.32 446.01C205.707 440.67 217.203 427.728 220.528 421.925C226.758 421.256 239.703 416.052 241.641 400.579C243.58 385.106 235.628 371.601 231.41 366.783C227.706 366.981 218.206 370.799 209.836 384.488C199.943 401.545 207.535 416.443 212.568 421.759Z" fill="#565656"/>
<path d="M197.005 414.258C179.014 403.257 162.795 415.281 156.934 422.668C161.934 417.128 177.98 417.177 185.378 417.895L161.334 425.358C186.801 435.558 195.726 422.208 197.005 414.258Z" fill="#565656"/>
<path d="M140.456 383.709C127.369 397.201 131.12 414.72 134.632 421.793C136.545 418.664 140.414 404.282 142.109 397.482C144.368 399.939 140.999 416.507 139.032 424.483C140.979 422.764 145.662 416.716 148.816 406.286C151.97 395.855 144.557 386.889 140.456 383.709Z" fill="#565656"/>
<path d="M168.076 406.643C174.019 397.291 188.207 380.533 197.42 388.315C208.935 398.044 173.538 399.908 168.076 406.643Z" fill="#565656"/>
<path d="M219.686 433.187C226.733 427.595 241.857 418.257 245.975 425.642C251.121 434.873 225.595 429.388 219.686 433.187Z" fill="#565656"/>
<path d="M207.472 308.827C214.39 303.076 226.63 290.188 220.246 284.644C212.266 277.714 212.402 303.823 207.472 308.827Z" fill="#565656"/>
<path d="M140.837 246.585C143.085 236.671 150.192 217.817 160.637 221.714C173.693 226.584 143.484 239.082 140.837 246.585Z" fill="#565656"/>
<path d="M136.736 318.315C129.492 315.512 116.021 308.069 120.089 300.726C125.174 291.547 131.355 315.488 136.736 318.315Z" fill="#565656"/>
<path d="M125.126 318.57C117.739 318.432 103.281 316.654 104.537 310.643C106.107 303.13 119.398 317.959 125.126 318.57Z" fill="#565656"/>
<path d="M184.185 221.029C177.951 202.663 183.674 164.965 256.434 161.096C257.214 189.112 244.735 240.86 188.585 223.719L183.801 231.541C186.353 239.818 191.96 257.084 193.98 259.932C196.505 263.491 210.483 307.638 171.794 326.969L174.749 349.598C178.228 340.979 189.713 323.149 207.817 320.786C225.92 318.422 239.136 328.519 243.481 333.862C242.746 339.458 237.467 352.485 222.23 359.826C203.185 369.002 189.468 363.973 174.956 383.31C168.678 393.577 163.677 403.953 160.877 409.629C158.11 415.241 144.005 432.952 131.112 438C130.859 438.178 130.704 438.24 130.661 438.171C130.811 438.116 130.961 438.059 131.112 438C134.857 435.354 160.12 407.016 161.777 396.074C163.547 384.394 137.171 376.997 133.26 374.605C129.349 372.214 113.188 365.69 106.291 356.098C100.773 348.425 96.4625 336.654 94.997 331.728C100.431 328.334 114.95 322.166 129.553 324.648C147.807 327.75 160.082 340.63 163.747 348.916C167.412 357.202 159.583 376.596 161.049 377.493C162.516 378.39 165.203 386.078 165.801 385.101C166.399 384.123 172.522 345.55 167.338 330.961C157.478 326.947 136.69 312.757 132.416 288.112C128.142 263.466 160.364 240.943 177.01 232.762L184.185 221.029Z" fill="#565656"/>
<path d="M216.343 271.265C215.974 271.641 215.626 271.988 215.301 272.297C215.4 271.865 215.768 271.526 216.343 271.265C220.2 267.33 226.391 260.189 234.375 259.78C247.55 259.104 248.095 252.721 255.674 251.31C258.201 250.84 262.888 254.378 260.317 260.195C256.81 268.126 248.496 275.132 238.69 272.494C235.256 271.57 220.464 269.397 216.343 271.265Z" fill="#565656"/>
<path d="M217.235 419.077C218.824 416.478 221.812 411.277 222.146 409.775C222.702 407.278 224.082 403.906 224.667 402.072C225.21 400.368 225.31 398.718 225.646 396.493C225.976 394.307 226.431 392.11 226.669 390.206C226.975 387.752 227.109 385.903 227.27 384.052C227.286 382.113 227.396 380.817 227.524 379.974C227.551 379.455 227.501 378.749 227.496 377.468" stroke="white" stroke-width="2.2922" stroke-linecap="round"/>
<path d="M227.469 390.881C227.399 390.838 227.329 390.795 228.108 389.441C228.886 388.086 230.516 385.421 232.16 381.778" stroke="white" stroke-width="2.2922" stroke-linecap="round"/>
<path d="M227.079 391.519C226.716 389.262 225.946 386.067 225.348 384.333C225.042 383.564 224.69 382.859 224.319 382.195C224.143 381.844 223.991 381.462 223.67 380.383" stroke="white" stroke-width="2.2922" stroke-linecap="round"/>
<path d="M225.943 399.584C225.779 398.42 227.271 396.611 229.633 394.894C231.661 393.255 232.481 392.393 232.989 391.879C233.256 391.603 233.541 391.295 234.094 390.553" stroke="white" stroke-width="2.2922" stroke-linecap="round"/>
<path d="M224.963 399.276C224.158 397.432 222.959 393.969 222.017 391.933C221.798 391.408 221.689 390.956 221.514 390.602C221.339 390.249 221.102 390.007 220.644 389.628" stroke="white" stroke-width="2.2922" stroke-linecap="round"/>
<path d="M221.347 407.577C222.86 405.104 224.663 403.1 226.277 402.373C227.66 401.709 228.533 401.074 229.519 400.178C230.123 399.434 230.938 398.101 231.777 396.728" stroke="white" stroke-width="2.2922" stroke-linecap="round"/>
<path d="M220.06 408.25C219.602 407.099 218.756 403.096 218.094 400.096C217.861 399.127 217.554 398.349 217.15 397.425C216.94 396.812 216.722 395.908 216.498 394.977" stroke="white" stroke-width="2.2922" stroke-linecap="round"/>
<path d="M218.192 417.035C219.084 416.517 222.901 415.36 225.661 413.488C227.885 412.162 229.337 411.692 230.361 410.662C230.648 410.35 231.045 410.015 231.715 409.245" stroke="white" stroke-width="2.2922" stroke-linecap="round"/>
<path d="M218.157 416.137C217.066 415.085 216.368 413.978 216.023 412.796C215.538 411.529 215.117 410.293 214.87 409.267C214.759 408.807 214.677 408.468 214.64 407.563" stroke="white" stroke-width="2.2922" stroke-linecap="round"/>
<path d="M172.328 379.352C172.133 379.041 171.955 378.062 171.874 376.604C171.839 375.965 171.945 375.527 174.578 371.06C177.211 366.592 182.4 358.107 187.353 352.528C192.306 346.949 196.865 344.535 199.497 343.223C203.593 341.181 205.522 340.97 207.9 340.819C211.709 340.579 214.331 339.454 216.854 338.753C219.773 337.941 221.923 337.86 224.216 337.611C229.587 337.029 231.846 336.921 233.394 336.698C233.774 336.637 234.113 336.555 234.444 336.416C234.774 336.276 235.086 336.082 235.408 335.881" stroke="white" stroke-width="2.2922" stroke-linecap="round"/>
<path d="M221.878 329.358C220.929 330.91 219.996 333.066 219.374 334.487C218.588 336.282 217.515 338.556 217.238 340.044C219.238 341.759 223.101 343.736 225.231 344.549C225.704 344.741 226.027 344.842 226.915 344.994" stroke="white" stroke-width="2.2922" stroke-linecap="round"/>
<path d="M209.526 329.982C208.897 332.123 207.855 334.777 207.056 336.884C206.463 338.447 206.146 340.751 205.854 342.428C208.765 344.7 214.534 348.035 216.09 348.839C216.467 349.022 216.861 349.166 218.164 349.279" stroke="white" stroke-width="2.2922" stroke-linecap="round"/>
<path d="M196.771 337.95C196.561 337.822 196.35 337.693 196.141 337.95C194.836 339.549 195.566 342.452 195.142 344.829C194.963 345.828 194.265 346.824 193.786 347.843C193.446 348.567 193.925 349.442 194.616 350.449C198.207 352.458 201.553 353.336 205.724 354.476C206.552 354.734 206.902 354.949 207.606 355.087" stroke="white" stroke-width="2.2922" stroke-linecap="round"/>
<path d="M184.418 343.826C185.827 348.661 186.786 353.152 187.747 355.636C188.088 356.516 188.192 357.226 188.548 357.833C189.547 359.54 192.568 359.128 196.449 360.094C197.319 360.282 197.756 360.356 198.156 360.501C198.556 360.647 198.907 360.861 199.268 361.082" stroke="white" stroke-width="2.2922" stroke-linecap="round"/>
<path d="M158.928 372.619C158.736 371.824 158.211 370.143 156.778 367.322C155.546 364.896 153.875 363.397 152.145 362.001C150.336 360.54 147.69 358.547 146.524 357.105C146.276 356.71 146.054 356.285 140.224 352.571C134.395 348.857 122.964 341.867 110.844 334.748" stroke="white" stroke-width="2.2922" stroke-linecap="round"/>
<path d="M112.211 344.927C113.108 344.41 116.488 342.994 120.242 341.964C122.228 341.418 124.88 340.423 126.866 339.735C127.326 339.576 127.549 338.943 127.536 338.491C126.539 336.468 125.771 334.536 125.486 333.731C125.354 333.308 125.245 332.856 125.132 332.39" stroke="white" stroke-width="2.2922" stroke-linecap="round"/>
<path d="M120.664 350.68C120.945 350.851 121.51 351.197 122.338 351.511C123.795 352.063 127.129 349.313 130.127 348.006C131.939 347.216 133.461 346.931 135.338 346.568C136.116 346.417 137.256 346.136 138.526 345.65C139.052 345.449 139.15 344.962 139.108 344.399C138.439 341.99 137.75 339.632 137.436 337.583C137.397 337.168 137.358 336.759 137.235 335.995" stroke="white" stroke-width="2.2922" stroke-linecap="round"/>
<path d="M128.148 359.928C128.908 358.843 130.369 357.403 132.068 356.929C136.254 355.762 142.93 356.419 145.039 356.248C145.539 356.208 146.055 356.093 146.579 355.878C147.104 355.663 147.614 355.3 147.755 354.605C148.381 351.507 147.757 349.834 147.952 348.395C147.985 348.024 147.946 347.614 147.942 347.22C147.938 346.827 147.969 346.46 148.131 345.87" stroke="white" stroke-width="2.2922" stroke-linecap="round"/>
<path d="M138.17 366.933C141.077 367.069 147.046 367.21 149.344 366.475C151.294 365.851 152.534 364.919 153.612 364.119C154.161 363.711 154.563 363.044 154.925 362.295C155.087 360.445 154.732 358.479 154.274 356.446C154.128 355.964 153.976 355.582 153.867 354.633" stroke="white" stroke-width="2.2922" stroke-linecap="round"/>
<path d="M166.295 323.327C166.109 322.051 165.588 319.403 165.34 316.868C164.739 310.75 165.405 308.873 165.355 307.284C165.309 305.808 165.035 304.074 165.12 302.178C165.207 300.24 165.21 298.535 164.983 295.723C164.79 293.342 165.204 290.753 165.354 288.744C165.523 286.475 165.82 284.8 165.925 282.721C166.092 279.404 166.742 277.094 167.114 274.881C167.368 273.369 167.995 271.531 168.339 269.935C168.704 268.239 168.528 266.21 168.699 263.542C168.852 261.163 169.237 259.636 169.588 257.708C169.886 256.072 170.019 254.374 170.811 252.52C171.294 251.65 171.59 250.85 172.216 249.348C172.811 248.213 173.969 246.319 175.162 244.369" stroke="white" stroke-width="2.2922" stroke-linecap="round"/>
<path d="M163.553 253.327C164.751 254.06 167.113 256.853 167.909 259.245C168.588 261.285 168.362 263.748 168.036 265.648C167.921 267.187 167.969 268.384 167.941 269.143C167.944 269.536 167.983 269.946 168.023 270.367" stroke="white" stroke-width="2.2922" stroke-linecap="round"/>
<path d="M181.854 256.345C181.25 258.288 178.505 262.461 175.992 264.426C173.952 266.022 171.623 267.986 170.261 269.101C169.816 269.509 169.246 270.125 168.733 270.644C168.22 271.164 167.779 271.569 166.936 272.624" stroke="white" stroke-width="2.2922" stroke-linecap="round"/>
<path d="M156.382 262.665C156.976 262.64 159.615 265.6 161.124 268.189C162.139 269.929 162.967 271.941 163.793 273.374C164.005 273.748 164.157 274.129 164.382 274.56C164.606 274.991 164.898 275.458 165.364 276.625" stroke="white" stroke-width="2.2922" stroke-linecap="round"/>
<path d="M183.905 271.613C183.041 273.026 179.402 275.826 176.033 278.366C172.138 281.305 170.19 283.069 167.871 284.474C166.743 285.049 165.748 285.71 164.903 286.457C164.499 286.798 164.144 287.063 162.964 287.713" stroke="white" stroke-width="2.2922" stroke-linecap="round"/>
<path d="M152.212 270.919C152.401 271.712 153.439 273.515 155.754 276.874C157.249 279.042 159.22 279.97 159.966 281.544C161.426 283.85 162.693 285.597 163.232 286.948C163.406 287.3 163.671 287.655 163.944 288.021" stroke="white" stroke-width="2.2922" stroke-linecap="round"/>
<path d="M183.215 287.542C181.857 288.65 177.557 292.21 173.677 294.638C169.165 297.631 167.28 298.808 165.889 300.2C165.634 300.534 165.463 300.815 164.389 301.139" stroke="white" stroke-width="2.2922" stroke-linecap="round"/>
<path d="M146.717 284.202C148.683 285.404 153.138 288.321 155.719 290.143C159.235 292.625 160.266 294.332 162.388 295.877C164.36 297.519 164.908 298.534 165.179 299.282C165.298 299.649 165.379 299.988 165.464 300.337" stroke="white" stroke-width="2.2922" stroke-linecap="round"/>
<path d="M178.144 306.338C177.412 307.535 175.831 309.491 174.622 310.746C173.08 312.348 171.601 313.228 170.265 314.214C169.269 314.816 168.176 315.324 167.257 315.636C166.832 315.769 166.493 315.851 165.329 316.313" stroke="white" stroke-width="2.2922" stroke-linecap="round"/>
<path d="M147.786 304.417L165.849 315.463" stroke="white" stroke-width="2.2922" stroke-linecap="round"/>
<path d="M190.332 217.693C191.846 214.677 195.156 209.621 199.222 204.953C201.045 202.861 202.67 200.765 204.173 199.024C205.636 197.33 207.987 195.848 211.096 192.842C213.474 190.544 216.417 188.2 217.65 186.91C219.655 184.811 222.521 183.989 224.55 182.747C228.19 180.519 231.323 179.879 233.617 178.473C235.885 177.084 239.033 175.564 240.963 174.134C241.384 173.894 241.945 173.691 242.435 173.436C242.925 173.181 243.328 172.881 244.666 172.143" stroke="white" stroke-width="2.2922" stroke-linecap="round"/>
<path d="M229.366 171.724C228.006 174.305 226.957 176.745 225.507 180.104C224.358 182.766 223.687 184.787 222.637 187.236C222.409 187.768 222.383 188.187 222.579 188.586C222.775 188.986 223.203 189.357 223.671 189.59C226.748 189.336 230.388 187.908 231.162 187.722C231.553 187.628 231.937 187.535 232.48 187.199" stroke="white" stroke-width="2.2922" stroke-linecap="round"/>
<path d="M224.918 182.245C226.448 182.082 229.088 181.716 232.078 181.885C234.874 182.043 236.49 181.715 238.762 181.065C241.171 179.835 243.023 178.977 243.75 178.597C244.124 178.437 244.509 178.344 245.44 177.914" stroke="white" stroke-width="2.2922" stroke-linecap="round"/>
<path d="M215.215 178.628C214.695 181.282 214.096 183.338 213.158 186.677C212.42 189.305 211.548 192.365 211.992 194.802C212.464 197.383 218.345 194.781 221.103 195.142C223.095 195.144 224.866 195.127 226.893 194.878C227.674 194.859 228.841 194.917 230.43 194.883" stroke="white" stroke-width="2.2922" stroke-linecap="round"/>
<path d="M201.411 190.377C202.044 191.863 202.378 193.828 203.868 199.858C204.647 203.013 205.186 205.475 205.762 207.158C206.391 208.995 210.25 206.937 218.579 206.633C220.303 206.567 220.687 206.474 221.117 206.404C221.547 206.335 222.011 206.291 222.489 206.245" stroke="white" stroke-width="2.2922" stroke-linecap="round"/>
<path d="M192.894 201.057C194.283 203.111 194.065 205.626 193.961 207.604C193.85 209.713 194.649 212.596 196.607 215.35C197.05 215.974 197.808 216.09 198.4 216.123C201.413 215.435 209.324 214.341 214.507 213.51C215.161 213.353 215.545 213.26 216.088 212.924" stroke="white" stroke-width="2.2922" stroke-linecap="round"/>
<ellipse cx="237.297" cy="297.839" rx="7.44963" ry="6.87658" transform="rotate(31.446 237.297 297.839)" fill="#565656"/>
<ellipse cx="170.035" cy="209.017" rx="4.58439" ry="5.15744" transform="rotate(31.446 170.035 209.017)" fill="#565656"/>
<ellipse cx="127.161" cy="235.192" rx="4.58439" ry="5.15744" transform="rotate(31.446 127.161 235.192)" fill="#565656"/>
<ellipse cx="151.008" cy="437.851" rx="4.58439" ry="5.15744" transform="rotate(31.446 151.008 437.851)" fill="#565656"/>
<ellipse cx="245.781" cy="364.152" rx="4.58439" ry="5.15744" transform="rotate(31.446 245.781 364.152)" fill="#565656"/>
<circle cx="95.7212" cy="362.398" r="4.01134" transform="rotate(31.446 95.7212 362.398)" fill="#565656"/>
</g>
</g>
<defs>
<linearGradient id="paint0_linear_80_247" x1="370.587" y1="591.623" x2="610.435" y2="361.182" gradientUnits="userSpaceOnUse">
<stop stop-color="#2F4858"/>
<stop offset="0.498193" stop-color="#776E60"/>
<stop offset="1" stop-color="#FFB66E"/>
</linearGradient>
<linearGradient id="paint1_linear_80_247" x1="338.608" y1="684.741" x2="336.553" y2="556.238" gradientUnits="userSpaceOnUse">
<stop offset="0.187738" stop-color="#FF9E47"/>
<stop offset="0.700076" stop-color="#CE4C00"/>
</linearGradient>
<linearGradient id="paint2_linear_80_247" x1="221.036" y1="715.78" x2="295.806" y2="573.51" gradientUnits="userSpaceOnUse">
<stop stop-color="#FF9E47"/>
<stop offset="0.768888" stop-color="#CE4C00"/>
</linearGradient>
<linearGradient id="paint3_linear_80_247" x1="249.102" y1="619.512" x2="387.068" y2="520.84" gradientUnits="userSpaceOnUse">
<stop stop-color="#2F4858"/>
<stop offset="0.62499" stop-color="#776E60"/>
<stop offset="1" stop-color="#FFB66E"/>
</linearGradient>
<linearGradient id="paint4_linear_80_247" x1="207.868" y1="405.389" x2="77.1252" y2="671.009" gradientUnits="userSpaceOnUse">
<stop stop-color="#FF9E47"/>
<stop offset="0.700076" stop-color="#CE4C00"/>
</linearGradient>
<linearGradient id="paint5_linear_80_247" x1="300.044" y1="-27.2767" x2="20.9345" y2="443.566" gradientUnits="userSpaceOnUse">
<stop offset="0.0370738" stop-color="#FF9E47"/>
<stop offset="0.317361" stop-color="#C3854C"/>
<stop offset="0.536553" stop-color="#675F53"/>
<stop offset="0.700076" stop-color="#2F4858"/>
</linearGradient>
<linearGradient id="paint6_linear_80_247" x1="300.044" y1="-27.2767" x2="20.9344" y2="443.566" gradientUnits="userSpaceOnUse">
<stop offset="0.0370738" stop-color="#FF9E47"/>
<stop offset="0.317361" stop-color="#C3854C"/>
<stop offset="0.536553" stop-color="#675F53"/>
<stop offset="0.700076" stop-color="#2F4858"/>
</linearGradient>
<linearGradient id="paint7_linear_80_247" x1="267.124" y1="39.5051" x2="-158.798" y2="312.439" gradientUnits="userSpaceOnUse">
<stop offset="0.127539" stop-color="#FF9E47"/>
<stop offset="0.700076" stop-color="#CE4C00"/>
</linearGradient>
<linearGradient id="paint8_linear_80_247" x1="267.124" y1="39.5051" x2="-158.798" y2="312.439" gradientUnits="userSpaceOnUse">
<stop offset="0.127539" stop-color="#FF9E47"/>
<stop offset="0.700076" stop-color="#CE4C00"/>
</linearGradient>
</defs>
</svg>
