<svg width="772" height="215" viewBox="0 0 772 215" fill="none" xmlns="http://www.w3.org/2000/svg">
<mask id="path-1-outside-1_42_68" maskUnits="userSpaceOnUse" x="225" y="66" width="547" height="99" fill="black">
<rect fill="white" x="225" y="66" width="547" height="99"/>
<path d="M227.979 130.928H241.092C241.464 146.763 256.061 150.846 269.546 150.846C283.401 150.846 293.421 145.402 293.421 135.877C293.421 127.836 287.236 124.619 276.968 122.764L256.927 119.423C246.412 117.815 230.701 113.485 230.701 96.2899C230.701 80.0841 243.443 69.4451 266.082 69.4451C283.896 69.4451 302.328 75.878 303.689 97.1559H290.576C289.586 90.3519 285.504 80.8263 264.35 80.8263C254.824 80.8263 243.814 84.9087 243.814 95.3002C243.814 100.743 247.402 105.073 258.288 106.929L279.937 110.64C286.865 112.001 306.534 115.094 306.534 133.279C306.534 155.67 286.37 162.227 268.556 162.227C248.639 162.227 227.979 155.175 227.979 130.928ZM387.934 160L376.676 134.269H333.378L322.121 160H308.018L347.976 71.6718H362.945L402.903 160H387.934ZM371.852 122.887L354.904 83.7953L338.327 122.887H371.852ZM425.021 148.619H456.814C478.339 148.619 482.174 130.557 482.174 114.846C482.174 99.3826 477.102 83.0531 454.34 83.0531H425.021V148.619ZM411.907 160V71.6718H456.69C483.164 71.6718 495.287 88.9911 495.287 114.599C495.287 139.217 484.525 160 457.432 160H411.907ZM580.263 160L569.005 134.269H525.707L514.45 160H500.347L540.305 71.6718H555.273L595.231 160H580.263ZM564.181 122.887L547.232 83.7953L530.655 122.887H564.181ZM634.902 111.877L664.221 71.6718H680.18L641.212 123.011V160H628.098V123.63L589.377 71.6718H606.078L634.902 111.877ZM752.054 160L740.796 134.269H697.498L686.241 160H672.138L712.096 71.6718H727.065L767.022 160H752.054ZM735.972 122.887L719.023 83.7953L702.446 122.887H735.972Z"/>
</mask>
<path d="M227.979 130.928H241.092C241.464 146.763 256.061 150.846 269.546 150.846C283.401 150.846 293.421 145.402 293.421 135.877C293.421 127.836 287.236 124.619 276.968 122.764L256.927 119.423C246.412 117.815 230.701 113.485 230.701 96.2899C230.701 80.0841 243.443 69.4451 266.082 69.4451C283.896 69.4451 302.328 75.878 303.689 97.1559H290.576C289.586 90.3519 285.504 80.8263 264.35 80.8263C254.824 80.8263 243.814 84.9087 243.814 95.3002C243.814 100.743 247.402 105.073 258.288 106.929L279.937 110.64C286.865 112.001 306.534 115.094 306.534 133.279C306.534 155.67 286.37 162.227 268.556 162.227C248.639 162.227 227.979 155.175 227.979 130.928ZM387.934 160L376.676 134.269H333.378L322.121 160H308.018L347.976 71.6718H362.945L402.903 160H387.934ZM371.852 122.887L354.904 83.7953L338.327 122.887H371.852ZM425.021 148.619H456.814C478.339 148.619 482.174 130.557 482.174 114.846C482.174 99.3826 477.102 83.0531 454.34 83.0531H425.021V148.619ZM411.907 160V71.6718H456.69C483.164 71.6718 495.287 88.9911 495.287 114.599C495.287 139.217 484.525 160 457.432 160H411.907ZM580.263 160L569.005 134.269H525.707L514.45 160H500.347L540.305 71.6718H555.273L595.231 160H580.263ZM564.181 122.887L547.232 83.7953L530.655 122.887H564.181ZM634.902 111.877L664.221 71.6718H680.18L641.212 123.011V160H628.098V123.63L589.377 71.6718H606.078L634.902 111.877ZM752.054 160L740.796 134.269H697.498L686.241 160H672.138L712.096 71.6718H727.065L767.022 160H752.054ZM735.972 122.887L719.023 83.7953L702.446 122.887H735.972Z" fill="#9370DB"/>
<path d="M227.979 130.928V128.215H225.266V130.928H227.979ZM241.092 130.928L243.805 130.865L243.743 128.215H241.092V130.928ZM276.968 122.764L277.451 120.094L277.432 120.091L277.414 120.088L276.968 122.764ZM256.927 119.423L257.373 116.747L257.355 116.744L257.337 116.742L256.927 119.423ZM303.689 97.1559V99.8688H306.581L306.397 96.9827L303.689 97.1559ZM290.576 97.1559L287.891 97.5464L288.229 99.8688H290.576V97.1559ZM258.288 106.929L258.746 104.255L258.744 104.255L258.288 106.929ZM279.937 110.64L280.46 107.978L280.428 107.972L280.395 107.966L279.937 110.64ZM227.979 130.928V133.641H241.092V130.928V128.215H227.979V130.928ZM241.092 130.928L238.38 130.992C238.59 139.935 242.918 145.759 249.081 149.195C255.049 152.522 262.609 153.558 269.546 153.558V150.846V148.133C262.998 148.133 256.517 147.128 251.723 144.455C247.122 141.891 243.966 137.756 243.805 130.865L241.092 130.928ZM269.546 150.846V153.558C276.777 153.558 283.282 152.146 288.079 149.257C292.968 146.313 296.134 141.767 296.134 135.877H293.421H290.708C290.708 139.512 288.865 142.45 285.28 144.609C281.602 146.824 276.17 148.133 269.546 148.133V150.846ZM293.421 135.877H296.134C296.134 131.001 294.182 127.361 290.632 124.8C287.288 122.388 282.669 121.037 277.451 120.094L276.968 122.764L276.486 125.433C281.535 126.346 285.143 127.531 287.458 129.201C289.568 130.723 290.708 132.711 290.708 135.877H293.421ZM276.968 122.764L277.414 120.088L257.373 116.747L256.927 119.423L256.481 122.099L276.522 125.44L276.968 122.764ZM256.927 119.423L257.337 116.742C252.169 115.951 246.093 114.534 241.357 111.432C236.789 108.441 233.414 103.868 233.414 96.2899H230.701H227.988C227.988 105.907 232.469 112.097 238.385 115.972C244.133 119.736 251.171 121.288 256.517 122.105L256.927 119.423ZM230.701 96.2899H233.414C233.414 88.9702 236.254 83.0701 241.569 78.9306C246.961 74.7304 255.15 72.158 266.082 72.158V69.4451V66.7322C254.375 66.7322 244.873 69.4793 238.235 74.65C231.518 79.8814 227.988 87.4038 227.988 96.2899H230.701ZM266.082 69.4451V72.158C274.727 72.158 283.229 73.7294 289.644 77.638C295.911 81.4561 300.359 87.5932 300.982 97.329L303.689 97.1559L306.397 96.9827C305.658 85.4406 300.21 77.7223 292.467 73.0045C284.872 68.3772 275.25 66.7322 266.082 66.7322V69.4451ZM303.689 97.1559V94.443H290.576V97.1559V99.8688H303.689V97.1559ZM290.576 97.1559L293.261 96.7654C292.715 93.0165 291.268 88.1993 286.785 84.3756C282.332 80.5765 275.299 78.1134 264.35 78.1134V80.8263V83.5392C274.554 83.5392 280.14 85.8389 283.264 88.5035C286.359 91.1437 287.447 94.4913 287.891 97.5464L290.576 97.1559ZM264.35 80.8263V78.1134C259.264 78.1134 253.614 79.1929 249.134 81.8281C244.55 84.5246 241.101 88.9436 241.101 95.3002H243.814H246.527C246.527 91.2654 248.583 88.4474 251.885 86.5048C255.292 84.5009 259.91 83.5392 264.35 83.5392V80.8263ZM243.814 95.3002H241.101C241.101 98.7005 242.261 101.921 245.172 104.493C247.967 106.962 252.152 108.635 257.832 109.603L258.288 106.929L258.744 104.255C253.537 103.367 250.485 101.947 248.765 100.427C247.16 99.0092 246.527 97.3432 246.527 95.3002H243.814ZM258.288 106.929L257.83 109.603L279.479 113.314L279.937 110.64L280.395 107.966L258.746 104.255L258.288 106.929ZM279.937 110.64L279.414 113.302C282.989 114.004 289.179 115.054 294.515 118.021C299.693 120.901 303.822 125.432 303.822 133.279H306.534H309.247C309.247 122.94 303.541 116.833 297.152 113.279C290.921 109.814 283.812 108.637 280.46 107.978L279.937 110.64ZM306.534 133.279H303.822C303.822 143.482 299.314 149.864 292.812 153.834C286.136 157.91 277.205 159.514 268.556 159.514V162.227V164.94C277.721 164.94 287.779 163.265 295.639 158.465C303.673 153.559 309.247 145.467 309.247 133.279H306.534ZM268.556 162.227V159.514C258.841 159.514 249.281 157.781 242.239 153.371C235.38 149.076 230.692 142.122 230.692 130.928H227.979H225.266C225.266 143.982 230.908 152.677 239.359 157.969C247.625 163.146 258.354 164.94 268.556 164.94V162.227ZM387.934 160L385.449 161.087L386.16 162.713H387.934V160ZM376.676 134.269L379.162 133.181L378.451 131.556H376.676V134.269ZM333.378 134.269V131.556H331.604L330.893 133.181L333.378 134.269ZM322.121 160V162.713H323.895L324.606 161.087L322.121 160ZM308.018 160L305.546 158.882L303.813 162.713H308.018V160ZM347.976 71.6718V68.9589H346.226L345.504 70.5537L347.976 71.6718ZM362.945 71.6718L365.417 70.5537L364.695 68.9589H362.945V71.6718ZM402.903 160V162.713H407.108L405.375 158.882L402.903 160ZM371.852 122.887V125.6H375.985L374.341 121.808L371.852 122.887ZM354.904 83.7953L357.393 82.7162L354.876 76.9113L352.406 82.7362L354.904 83.7953ZM338.327 122.887L335.829 121.828L334.23 125.6H338.327V122.887ZM387.934 160L390.419 158.913L379.162 133.181L376.676 134.269L374.191 135.356L385.449 161.087L387.934 160ZM376.676 134.269V131.556H333.378V134.269V136.981H376.676V134.269ZM333.378 134.269L330.893 133.181L319.635 158.913L322.121 160L324.606 161.087L335.864 135.356L333.378 134.269ZM322.121 160V157.287H308.018V160V162.713H322.121V160ZM308.018 160L310.49 161.118L350.448 72.79L347.976 71.6718L345.504 70.5537L305.546 158.882L308.018 160ZM347.976 71.6718V74.3848H362.945V71.6718V68.9589H347.976V71.6718ZM362.945 71.6718L360.473 72.79L400.431 161.118L402.903 160L405.375 158.882L365.417 70.5537L362.945 71.6718ZM402.903 160V157.287H387.934V160V162.713H402.903V160ZM371.852 122.887L374.341 121.808L357.393 82.7162L354.904 83.7953L352.415 84.8744L369.363 123.966L371.852 122.887ZM354.904 83.7953L352.406 82.7362L335.829 121.828L338.327 122.887L340.824 123.946L357.401 84.8544L354.904 83.7953ZM338.327 122.887V125.6H371.852V122.887V120.174H338.327V122.887ZM425.021 148.619H422.308V151.332H425.021V148.619ZM425.021 83.0531V80.3401H422.308V83.0531H425.021ZM411.907 160H409.194V162.713H411.907V160ZM411.907 71.6718V68.9589H409.194V71.6718H411.907ZM425.021 148.619V151.332H456.814V148.619V145.906H425.021V148.619ZM456.814 148.619V151.332C462.581 151.332 467.339 150.119 471.205 147.906C475.076 145.69 477.901 142.557 479.93 138.956C483.932 131.849 484.887 122.824 484.887 114.846H482.174H479.461C479.461 122.58 478.498 130.441 475.202 136.293C473.581 139.17 471.412 141.535 468.509 143.197C465.603 144.861 461.809 145.906 456.814 145.906V148.619ZM482.174 114.846H484.887C484.887 106.906 483.601 98.3016 479.032 91.6195C474.332 84.7465 466.463 80.3401 454.34 80.3401V83.0531V85.766C464.978 85.766 471.026 89.5244 474.553 94.6821C478.211 100.031 479.461 107.323 479.461 114.846H482.174ZM454.34 83.0531V80.3401H425.021V83.0531V85.766H454.34V83.0531ZM425.021 83.0531H422.308V148.619H425.021H427.733V83.0531H425.021ZM411.907 160H414.62V71.6718H411.907H409.194V160H411.907ZM411.907 71.6718V74.3848H456.69V71.6718V68.9589H411.907V71.6718ZM456.69 71.6718V74.3848C469.297 74.3848 478.117 78.4804 483.841 85.2797C489.63 92.1557 492.574 102.178 492.574 114.599H495.287H498C498 101.412 494.883 89.9707 487.992 81.7852C481.036 73.5229 470.557 68.9589 456.69 68.9589V71.6718ZM495.287 114.599H492.574C492.574 126.57 489.949 137.28 484.333 144.925C478.809 152.445 470.188 157.287 457.432 157.287V160V162.713C471.769 162.713 482.076 157.163 488.706 148.137C495.244 139.237 498 127.246 498 114.599H495.287ZM457.432 160V157.287H411.907V160V162.713H457.432V160ZM580.263 160L577.777 161.087L578.488 162.713H580.263V160ZM569.005 134.269L571.491 133.181L570.779 131.556H569.005V134.269ZM525.707 134.269V131.556H523.933L523.222 133.181L525.707 134.269ZM514.45 160V162.713H516.224L516.935 161.087L514.45 160ZM500.347 160L497.875 158.882L496.142 162.713H500.347V160ZM540.305 71.6718V68.9589H538.554L537.833 70.5537L540.305 71.6718ZM555.273 71.6718L557.745 70.5537L557.024 68.9589H555.273V71.6718ZM595.231 160V162.713H599.436L597.703 158.882L595.231 160ZM564.181 122.887V125.6H568.314L566.67 121.808L564.181 122.887ZM547.232 83.7953L549.721 82.7162L547.205 76.9113L544.735 82.7362L547.232 83.7953ZM530.655 122.887L528.158 121.828L526.558 125.6H530.655V122.887ZM580.263 160L582.748 158.913L571.491 133.181L569.005 134.269L566.52 135.356L577.777 161.087L580.263 160ZM569.005 134.269V131.556H525.707V134.269V136.981H569.005V134.269ZM525.707 134.269L523.222 133.181L511.964 158.913L514.45 160L516.935 161.087L528.193 135.356L525.707 134.269ZM514.45 160V157.287H500.347V160V162.713H514.45V160ZM500.347 160L502.818 161.118L542.776 72.79L540.305 71.6718L537.833 70.5537L497.875 158.882L500.347 160ZM540.305 71.6718V74.3848H555.273V71.6718V68.9589H540.305V71.6718ZM555.273 71.6718L552.802 72.79L592.76 161.118L595.231 160L597.703 158.882L557.745 70.5537L555.273 71.6718ZM595.231 160V157.287H580.263V160V162.713H595.231V160ZM564.181 122.887L566.67 121.808L549.721 82.7162L547.232 83.7953L544.743 84.8744L561.691 123.966L564.181 122.887ZM547.232 83.7953L544.735 82.7362L528.158 121.828L530.655 122.887L533.153 123.946L549.73 84.8544L547.232 83.7953ZM530.655 122.887V125.6H564.181V122.887V120.174H530.655V122.887ZM634.902 111.877L632.698 113.458L634.884 116.507L637.094 113.476L634.902 111.877ZM664.221 71.6718V68.9589H662.842L662.029 70.0734L664.221 71.6718ZM680.18 71.6718L682.341 73.3121L685.645 68.9589H680.18V71.6718ZM641.212 123.011L639.051 121.371L638.499 122.098V123.011H641.212ZM641.212 160V162.713H643.924V160H641.212ZM628.098 160H625.385V162.713H628.098V160ZM628.098 123.63H630.811V122.73L630.274 122.008L628.098 123.63ZM589.378 71.6718V68.9589H583.972L587.202 73.293L589.378 71.6718ZM606.078 71.6718L608.283 70.0911L607.471 68.9589H606.078V71.6718ZM634.902 111.877L637.094 113.476L666.413 73.2703L664.221 71.6718L662.029 70.0734L632.71 110.279L634.902 111.877ZM664.221 71.6718V74.3848H680.18V71.6718V68.9589H664.221V71.6718ZM680.18 71.6718L678.019 70.0316L639.051 121.371L641.212 123.011L643.372 124.651L682.341 73.3121L680.18 71.6718ZM641.212 123.011H638.499V160H641.212H643.924V123.011H641.212ZM641.212 160V157.287H628.098V160V162.713H641.212V160ZM628.098 160H630.811V123.63H628.098H625.385V160H628.098ZM628.098 123.63L630.274 122.008L591.553 70.0507L589.378 71.6718L587.202 73.293L625.923 125.251L628.098 123.63ZM589.378 71.6718V74.3848H606.078V71.6718V68.9589H589.378V71.6718ZM606.078 71.6718L603.873 73.2525L632.698 113.458L634.902 111.877L637.107 110.297L608.283 70.0911L606.078 71.6718ZM752.054 160L749.568 161.087L750.279 162.713H752.054V160ZM740.796 134.269L743.282 133.181L742.57 131.556H740.796V134.269ZM697.498 134.269V131.556H695.724L695.013 133.181L697.498 134.269ZM686.241 160V162.713H688.015L688.726 161.087L686.241 160ZM672.138 160L669.666 158.882L667.933 162.713H672.138V160ZM712.096 71.6718V68.9589H710.345L709.624 70.5537L712.096 71.6718ZM727.065 71.6718L729.536 70.5537L728.815 68.9589H727.065V71.6718ZM767.022 160V162.713H771.227L769.494 158.882L767.022 160ZM735.972 122.887V125.6H740.105L738.461 121.808L735.972 122.887ZM719.023 83.7953L721.513 82.7162L718.996 76.9113L716.526 82.7362L719.023 83.7953ZM702.446 122.887L699.949 121.828L698.349 125.6H702.446V122.887ZM752.054 160L754.539 158.913L743.282 133.181L740.796 134.269L738.311 135.356L749.568 161.087L752.054 160ZM740.796 134.269V131.556H697.498V134.269V136.981H740.796V134.269ZM697.498 134.269L695.013 133.181L683.755 158.913L686.241 160L688.726 161.087L699.984 135.356L697.498 134.269ZM686.241 160V157.287H672.138V160V162.713H686.241V160ZM672.138 160L674.61 161.118L714.568 72.79L712.096 71.6718L709.624 70.5537L669.666 158.882L672.138 160ZM712.096 71.6718V74.3848H727.065V71.6718V68.9589H712.096V71.6718ZM727.065 71.6718L724.593 72.79L764.551 161.118L767.022 160L769.494 158.882L729.536 70.5537L727.065 71.6718ZM767.022 160V157.287H752.054V160V162.713H767.022V160ZM735.972 122.887L738.461 121.808L721.513 82.7162L719.023 83.7953L716.534 84.8744L733.482 123.966L735.972 122.887ZM719.023 83.7953L716.526 82.7362L699.949 121.828L702.446 122.887L704.944 123.946L721.521 84.8544L719.023 83.7953ZM702.446 122.887V125.6H735.972V122.887V120.174H702.446V122.887Z" fill="#9370DB" mask="url(#path-1-outside-1_42_68)"/>
<path d="M61.5959 193.212C10.2242 203.895 3.34818 168.776 5.05298 145.477C-0.345588 157.127 -2.9028 181.165 5.05298 196.622C14.9977 215.943 46.4503 219.161 83.4743 208.271C112.456 199.747 145.7 173.607 162.464 152.581L176.986 134.964L160.475 125.02C137.744 152.012 112.968 182.529 61.5959 193.212Z" fill="url(#paint0_linear_42_68)"/>
<path d="M155.076 132.123C147.348 115.529 146.552 92.4388 147.121 82.9676V69.3291L167.863 80.6945V89.5027C168.147 114.791 175.25 126.724 177.523 134.396C180.806 145.477 190.431 163.378 184.342 190.655C178.66 216.113 141.817 215.848 124.106 212.533C149.678 213.102 159.054 196.906 162.748 186.677C166.442 176.448 165.874 155.99 155.076 132.123Z" fill="url(#paint1_linear_42_68)"/>
<path d="M35.1714 123.315C39.2629 111.04 40.2858 92.2495 40.2858 84.3884L40.2858 71.8865H35.1714L20.6805 84.3884C20.1122 84.3884 18.9757 85.2977 18.9757 88.9346C18.7484 106.892 10.4516 132.976 5.33719 145.762C3.91649 165.367 7.26716 172.755 11.0199 179.858C16.9867 191.152 36.4026 195.296 44.832 195.485C38.4863 193.875 23.5218 193.212 22.3853 176.732C21.4447 163.094 30.057 138.658 35.1714 123.315Z" fill="url(#paint2_linear_42_68)"/>
<path d="M79.2122 180.426C53.3559 170.481 40.2856 142.636 35.1712 123.599L29.7726 140.078L24.6582 157.127C28.352 162.809 32.614 172.488 49.378 186.108C56.7655 192.111 98.5334 212.249 124.958 212.249C150.644 212.931 160.475 195.106 162.18 186.108C158.77 192.018 152.046 194.254 149.109 194.632C145.521 195.231 133.766 194.632 118.707 192.644C113.308 191.93 105.068 190.37 79.2122 180.426Z" fill="url(#paint3_linear_42_68)"/>
<path d="M163.6 177.585C160.759 206.851 134.335 212.818 123.822 212.249C124.674 213.007 134.335 213.164 138.028 212.818C150.53 211.646 156.781 204.01 160.759 198.327C165.533 191.508 165.305 174.933 164.453 168.208L163.6 177.585Z" fill="#A9CF68"/>
<path d="M5.62125 146.33C5.62125 159.684 7.67488 191.974 41.6323 195.485C26.4353 194.9 -1.296 186.408 5.62125 146.33Z" fill="#A56E6B"/>
<path fill-rule="evenodd" clip-rule="evenodd" d="M93.3842 0.000244141C118.104 0.000244141 130.606 18.1848 132.311 42.6204H154.189C157.125 42.8098 162.941 46.3716 162.713 59.1008H25.476C24.7183 54.1758 25.2489 43.9842 33.432 42.6204H55.3099C54.4576 29.1712 63.5501 0.000273553 93.3842 0.000244141ZM93.6683 11.3655C72.7561 11.1382 67.1488 31.5389 66.9594 41.7678H120.661C120.377 31.7283 114.581 11.5928 93.6683 11.3655Z" fill="url(#paint4_linear_42_68)"/>
<path d="M109.615 9.09286C91.4301 2.27361 77.4127 14.7756 72.6772 21.879C67.8468 30.403 66.7103 37.5064 66.7103 42.6208H55.0608C55.0608 17.901 70.3773 0.000531814 94.5556 0.000488281C116.15 0.000449401 126.095 15.6279 129.22 26.9933L126.095 22.4472C124.106 19.3216 117.571 12.2751 109.615 9.09286Z" fill="#F99912"/>
<path d="M31.1935 55.7155H49.9464L38.8651 76.7415C37.1603 86.118 32.8983 89.5276 23.5218 89.5276C15.8502 89.5276 11.967 80.8141 11.5881 76.7415L26.6473 57.4204C27.7839 55.7155 29.7728 55.6208 31.1935 55.7155Z" fill="#F99912"/>
<path d="M23.5218 89.5278C15.8502 89.5278 11.967 80.8143 11.5882 76.7417H38.8651C37.1603 86.1182 32.8983 89.5278 23.5218 89.5278Z" fill="#D98105"/>
<path d="M72.1088 55.7156H49.9463L38.865 76.7416C38.5809 78.1623 40.854 89.8118 53.3559 89.8118C63.3575 89.8118 66.2367 80.7195 66.4261 76.1733L72.1088 55.7156Z" fill="#9ACD32"/>
<path d="M53.3559 89.8119C63.3575 89.8119 66.2367 81.2879 66.4261 76.7417H38.865C38.5809 78.1624 40.854 89.8119 53.3559 89.8119Z" fill="#83B718"/>
<path d="M93.9873 55.7156H72.1089L66.4262 76.1733C66.8998 80.2459 68.131 89.5277 79.7806 89.5277C89.3707 89.5277 93.2296 82.8979 93.9873 79.0147V55.7156Z" fill="#9370DB"/>
<path d="M79.7806 89.5274C91.4301 89.5274 93.2297 80.8837 93.9874 77.0005H66.7104C67.1839 81.0731 68.131 89.5274 79.7806 89.5274Z" fill="#7749D5"/>
<path d="M115.866 55.7156H93.9873V79.0147C95.0291 82.8979 99.3859 90.4937 108.478 89.8118C119.162 89.1299 121.454 80.4353 121.264 76.1733L115.866 55.7156Z" fill="#9ACD32"/>
<path d="M108.478 89.8116C117.002 89.8116 121.738 81.2625 121.548 77.0005H93.9873V79.0144C95.0291 82.8976 98.5335 89.8116 108.478 89.8116Z" fill="#83B718"/>
<path d="M136.892 55.7156H114.729L120.128 76.4575C120.98 80.8142 123.822 89.5277 134.903 89.5277C144.677 89.5277 147.878 80.8142 148.257 76.4575L136.892 55.7156Z" fill="#9370DB"/>
<path d="M134.903 89.5274C144.677 89.5274 147.594 81.3572 147.973 77.0005H120.412C121.264 81.3572 123.821 89.5274 134.903 89.5274Z" fill="#7749D5"/>
<path d="M157.065 55.7156H136.892L148.257 76.4575C148.447 81.4772 152.803 91.0727 162.18 90.0959C173.091 88.9594 175.44 80.5301 175.25 76.4575C171.84 72.1007 164.453 62.6485 162.18 59.6935C159.907 56.7385 157.823 55.8103 157.065 55.7156Z" fill="#9ACD32"/>
<path d="M162.18 90.0957C173.829 90.0957 175.44 81.0731 175.25 77.0005H148.257C148.447 82.0202 152.753 90.0957 162.18 90.0957Z" fill="#83B718"/>
<path d="M157.918 55.6904L160.475 57.6794C160.475 57.6794 132.63 60.2366 93.7032 60.2366C54.7767 60.2366 25.5107 58.8159 25.5107 58.8159L29.7727 55.6904H157.918Z" fill="url(#paint5_linear_42_68)"/>
<defs>
<linearGradient id="paint0_linear_42_68" x1="151.951" y1="134.396" x2="11.0198" y2="204.293" gradientUnits="userSpaceOnUse">
<stop offset="0.0304635" stop-color="#9370DB"/>
<stop offset="0.855071" stop-color="#F99912"/>
</linearGradient>
<linearGradient id="paint1_linear_42_68" x1="155.361" y1="50.8603" x2="155.212" y2="214.105" gradientUnits="userSpaceOnUse">
<stop offset="0.141144" stop-color="#6B6774"/>
<stop offset="0.28553" stop-color="#9370DB"/>
<stop offset="1" stop-color="#9ACD32"/>
</linearGradient>
<linearGradient id="paint2_linear_42_68" x1="35.4555" y1="75.012" x2="-11.4268" y2="206.567" gradientUnits="userSpaceOnUse">
<stop offset="0.0692614" stop-color="#A66100"/>
<stop offset="0.20474" stop-color="#F99912"/>
<stop offset="0.844621" stop-color="#9571D7"/>
<stop offset="1" stop-color="#9370DB"/>
</linearGradient>
<linearGradient id="paint3_linear_42_68" x1="21.5327" y1="118.768" x2="162.18" y2="210.828" gradientUnits="userSpaceOnUse">
<stop stop-color="#9ACD32"/>
<stop offset="0.500554" stop-color="#9370DB"/>
<stop offset="0.938902" stop-color="#9ACD32"/>
</linearGradient>
<linearGradient id="paint4_linear_42_68" x1="76.6203" y1="9.09265" x2="182.035" y2="73.0228" gradientUnits="userSpaceOnUse">
<stop stop-color="#F99912"/>
<stop offset="0.177036" stop-color="#B67E96"/>
<stop offset="0.351003" stop-color="#9370DB"/>
<stop offset="0.558495" stop-color="#97A37D"/>
<stop offset="0.901876" stop-color="#9ACD32"/>
</linearGradient>
<linearGradient id="paint5_linear_42_68" x1="84.6109" y1="51.4284" x2="84.6109" y2="62.2255" gradientUnits="userSpaceOnUse">
<stop offset="0.344677" stop-color="#737373" stop-opacity="0.5"/>
<stop offset="1" stop-color="#D9D9D9" stop-opacity="0"/>
</linearGradient>
</defs>
</svg>
